<svg width="14" height="14" viewBox="0 0 14 14" fill="none" xmlns="http://www.w3.org/2000/svg">
<path d="M2.33329 4.66667V11.0833C2.33329 11.3928 2.45621 11.6895 2.675 11.9083C2.89379 12.1271 3.19054 12.25 3.49996 12.25H4.66663M11.6666 4.66667V11.0833C11.6666 11.3928 11.5437 11.6895 11.3249 11.9083C11.1061 12.1271 10.8094 12.25 10.5 12.25H9.33329M5.24996 8.75L6.99996 7M6.99996 7L8.74996 8.75M6.99996 7V12.25M1.74996 1.75H12.25C12.5721 1.75 12.8333 2.01117 12.8333 2.33333V4.08333C12.8333 4.4055 12.5721 4.66667 12.25 4.66667H1.74996C1.42779 4.66667 1.16663 4.4055 1.16663 4.08333V2.33333C1.16663 2.01117 1.42779 1.75 1.74996 1.75Z" stroke="#D4D4D8" stroke-width="0.75" stroke-linecap="round" stroke-linejoin="round"/>
</svg>
