<svg width="264" height="83" viewBox="0 0 264 83" fill="none" xmlns="http://www.w3.org/2000/svg">
<g clip-path="url(#clip0_255_70792)">
<path d="M85.5185 14.639C81.6194 15.6743 77.9689 15.1501 74.3969 13.643C72.6829 12.9222 70.2361 11.3364 69.5034 10.4583C70.5371 10.7728 71.5838 11.1791 72.6829 11.4019C76.0193 12.0965 79.2642 11.533 82.4306 10.419C86.8923 8.85941 90.8699 6.39555 94.5858 3.52542C96.012 2.42454 97.3728 1.23193 98.8644 0C98.0662 3.69579 97.2943 7.31295 96.483 11.0481C99.4662 10.4845 101.965 9.13463 104.229 7.27363C106.479 5.41263 108.311 3.18467 109.829 0.629071C110.771 1.10087 111.674 1.55957 112.629 2.03137C112.119 3.0274 111.608 3.98411 111.137 4.95393C109.279 8.8332 108.206 12.9353 107.33 17.1291C106.152 22.7907 104.909 28.4523 103.679 34.1009C103.666 34.1795 103.627 34.2581 103.601 34.3761C100.526 34.3761 97.4513 34.3761 94.2849 34.3761C95.9335 26.8797 97.5429 19.4094 99.1391 11.9654C98.2102 11.7558 97.3597 11.5592 96.4438 11.3495C96.169 12.5814 95.8812 13.8658 95.5933 15.1501C94.2326 21.3753 92.8849 27.6136 91.5241 33.8388C91.4587 34.1271 91.4064 34.363 91.0008 34.363C87.8213 34.3499 84.6418 34.3499 81.4493 34.3499C81.3839 34.3499 81.3315 34.3106 81.2138 34.2844C82.653 27.784 84.0661 21.2836 85.5185 14.639Z" fill="white"/>
<path d="M23.5779 25.1365C21.5106 25.1365 19.561 25.1365 17.5199 25.1365C17.8863 23.3672 18.2526 21.6504 18.6059 19.9204C24.1274 19.9204 29.6097 19.9204 35.1443 19.9204C34.6471 22.2532 34.1761 24.5467 33.692 26.8402C33.2994 28.675 32.9069 30.4967 32.5406 32.3315C32.4359 32.8426 32.2265 33.0654 31.677 33.1702C26.2863 34.2711 20.8564 34.9526 15.3479 35.005C12.3124 35.0312 9.30302 34.8084 6.43758 33.6682C2.48615 32.0956 0.824455 29.0157 1.11231 24.8875C1.34782 21.5586 2.26372 18.4657 4.25252 15.7528C6.51608 12.6468 9.68246 10.8382 13.3199 9.8553C17.062 8.84616 20.8695 8.66268 24.7162 8.89859C27.163 9.04275 29.5705 9.30486 31.8602 10.2354C33.7312 10.9955 35.2752 12.1357 35.7331 14.2326C35.9163 15.1107 35.864 16.0412 35.9163 16.9979C32.1611 16.9979 28.563 16.9979 24.8863 16.9979C24.7293 16.0149 24.3368 15.0451 23.3293 14.6651C22.3872 14.3243 21.3536 14.0491 20.3723 14.0753C16.1853 14.2064 13.0844 16.9323 12.1685 21.2572C11.9199 22.4629 11.7498 23.7342 11.8544 24.9399C12.103 27.8231 13.6077 29.3565 16.4993 29.6841C18.4358 29.9069 20.3723 29.7628 22.2433 29.1337C22.6489 29.0026 22.8321 28.7929 22.8975 28.3605C23.0807 27.3251 23.3293 26.2898 23.5779 25.1365Z" fill="white"/>
<path d="M122.717 35.0051C119.093 35.0051 116.201 34.7561 113.453 33.6159C109.698 32.0564 107.775 29.2518 107.866 25.1759C107.997 19.724 110.065 15.1894 114.579 11.9523C117.052 10.1831 119.878 9.38361 122.861 9.05597C125.792 8.74144 128.723 8.67591 131.653 9.05597C133.603 9.30498 135.5 9.76368 137.254 10.6942C140.263 12.2931 141.781 14.8618 141.833 18.2168C141.885 21.9781 140.839 25.4511 138.549 28.4654C136.416 31.2831 133.446 32.8689 130.136 33.9043C127.506 34.7299 124.784 35.0313 122.717 35.0051ZM131.091 19.6322C131.065 19.1342 131.065 18.8066 131.039 18.492C130.868 16.4476 129.625 14.9535 127.676 14.6128C125.438 14.2065 123.41 14.7307 121.775 16.3427C119.25 18.8328 118.438 22.0174 118.674 25.438C118.831 27.7708 120.323 29.1469 122.586 29.3435C124.902 29.5532 126.891 28.7931 128.422 27.0238C130.267 24.8483 130.934 22.2402 131.091 19.6322Z" fill="white"/>
<path d="M50.4002 35.0051C47.2993 34.992 44.2245 34.7299 41.346 33.4062C38.0226 31.8728 36.217 29.2517 36.2301 25.5821C36.2431 19.8419 38.3759 15.1107 43.1908 11.7819C45.5983 10.1306 48.3329 9.37046 51.1984 9.05593C54.1292 8.74139 57.0601 8.67586 59.991 9.04282C61.8097 9.27872 63.5891 9.685 65.2508 10.4975C68.4172 12.044 70.1181 14.6127 70.1836 18.125C70.2621 22.2009 69.0845 25.9229 66.4284 29.0551C64.2303 31.65 61.2863 33.1048 58.0807 34.0222C55.5685 34.7561 53.004 35.0313 50.4002 35.0051ZM46.946 24.4026C46.946 24.573 46.946 24.7565 46.946 24.9269C47.0245 27.1286 48.2283 28.7799 50.1255 29.1862C52.4545 29.6842 54.5872 29.1993 56.2751 27.4956C58.8396 24.9006 59.7031 21.6373 59.3106 18.0726C59.1012 16.133 57.7667 14.8617 55.9349 14.5734C53.3965 14.1802 51.2246 14.9273 49.5498 16.8931C47.718 19.0424 47.1292 21.6636 46.946 24.4026Z" fill="white"/>
<path d="M170.173 34.3231C166.719 34.3231 163.278 34.3231 159.758 34.3231C159.797 33.5761 159.824 32.8684 159.85 32.1607C159.915 30.6142 160.02 29.0677 160.059 27.5213C160.085 26.1059 159.549 25.4899 158.136 25.4244C156.487 25.3588 154.839 25.4113 153.111 25.4113C152.771 26.997 152.418 28.6352 152.065 30.2734C151.803 31.4792 151.554 32.698 151.267 33.9037C151.227 34.0872 150.953 34.3362 150.782 34.3362C147.511 34.3624 144.24 34.3493 140.969 34.3493C140.904 34.3493 140.852 34.31 140.721 34.2707C142.461 26.0141 144.214 17.7707 145.981 9.44859C146.216 9.44859 146.452 9.44859 146.687 9.44859C152.418 9.44859 158.149 9.43548 163.88 9.46169C165.855 9.4748 167.844 9.52722 169.768 10.1301C170.461 10.3398 171.168 10.6543 171.756 11.0606C173.444 12.227 173.614 13.97 173.313 15.7917C172.738 19.3171 170.487 21.2306 167.177 22.1217C166.968 22.1742 166.771 22.2528 166.562 22.3314C166.575 22.3839 166.575 22.4494 166.588 22.5018C167.112 22.5935 167.635 22.646 168.145 22.777C169.938 23.2226 170.697 24.258 170.618 26.0796C170.5 28.6483 170.37 31.2171 170.239 33.7858C170.252 33.9561 170.212 34.1265 170.173 34.3231ZM155.427 14.4549C154.982 16.5256 154.577 18.4522 154.132 20.5753C156.173 20.4704 158.136 20.4966 160.059 20.2476C161.472 20.051 162.362 19.0419 162.702 17.6003C163.095 15.9752 162.532 14.9136 160.883 14.7171C159.104 14.4943 157.285 14.5336 155.427 14.4549Z" fill="white"/>
<path d="M184.526 24.5076C184.199 26.041 183.872 27.5219 183.532 29.0946C188.164 29.0946 192.717 29.0946 197.362 29.0946C196.982 30.8769 196.629 32.5807 196.263 34.3106C188.308 34.3106 180.366 34.3106 172.306 34.3106C172.502 33.3146 172.698 32.3448 172.894 31.375C174.412 24.2455 175.93 17.116 177.435 9.98655C177.513 9.59338 177.631 9.44922 178.05 9.44922C185.717 9.46232 193.397 9.46232 201.065 9.46232C201.156 9.46232 201.235 9.47543 201.379 9.48854C201.025 11.2054 200.659 12.896 200.293 14.6915C200.044 14.6915 199.796 14.6915 199.547 14.6915C195.452 14.6915 191.356 14.7046 187.261 14.6784C186.764 14.6784 186.541 14.7963 186.45 15.3337C186.227 16.618 185.926 17.8893 185.638 19.2522C189.943 19.2522 194.169 19.2522 198.474 19.2522C198.121 20.956 197.794 22.5811 197.427 24.18C197.388 24.3241 197.009 24.4945 196.786 24.4945C192.979 24.5076 189.158 24.5076 185.338 24.5076C185.089 24.5076 184.853 24.5076 184.526 24.5076Z" fill="white"/>
<path d="M263.581 12.686C262.116 12.804 260.663 12.7909 259.263 13.053C256.306 13.5903 253.938 15.2547 252.159 17.6007C250.353 19.9859 248.809 22.5808 247.108 25.0578C245.747 27.0236 244.465 29.0681 242.921 30.8767C238.093 36.4859 229.85 36.3679 224.983 30.6014C222.955 28.2031 221.398 25.5165 219.762 22.8691C218.362 20.6018 216.936 18.3608 215.039 16.4736C212.356 13.7869 209.151 12.5157 205.356 12.8171C205.121 12.8302 204.885 12.8171 204.584 12.8171C205.056 11.7031 205.801 10.8513 206.743 10.1698C209.321 8.32187 212.801 8.34808 215.575 10.196C217.813 11.69 219.435 13.7607 220.914 15.9625C222.758 18.7015 224.486 21.5455 226.396 24.2452C227.351 25.5951 228.489 26.8794 229.758 27.9541C232.624 30.3524 236.026 30.1821 238.826 27.692C240.88 25.8834 242.332 23.603 243.824 21.3489C245.512 18.7933 247.174 16.1984 248.979 13.7214C250.471 11.6769 252.316 9.98628 254.802 9.16063C258.086 8.08596 261.789 9.46206 263.437 12.4108C263.516 12.5157 263.555 12.6336 263.581 12.686Z" fill="white"/>
<path d="M69.2417 34.2963C70.6679 27.6125 72.0941 20.9679 73.5333 14.2578C76.3595 15.516 79.2511 16.3285 82.4044 16.0795C82.0642 17.6784 81.7502 19.1855 81.4362 20.6927C80.4941 25.07 79.552 29.4472 78.61 33.8245C78.5315 34.1653 78.4661 34.375 78.0604 34.375C75.2343 34.3619 72.395 34.3619 69.5688 34.3619C69.5034 34.3619 69.438 34.3357 69.2417 34.2963Z" fill="white"/>
<path d="M234.09 8.79492C238.028 8.79492 241.181 11.9534 241.168 15.8982C241.155 19.8037 238.002 22.9359 234.09 22.9359C230.204 22.9359 227.05 19.7643 227.05 15.8589C227.037 11.9403 230.191 8.79492 234.09 8.79492Z" fill="white"/>
<path d="M256.934 34.9789C253.022 34.9789 249.895 31.8598 249.869 27.9281C249.843 24.0357 253.009 20.851 256.895 20.8379C260.807 20.8248 264 24.0095 264 27.9281C264.013 31.8205 260.833 34.9789 256.934 34.9789ZM259.603 27.915C259.603 26.434 258.439 25.2676 256.96 25.2676C255.43 25.2676 254.239 26.4209 254.226 27.915C254.213 29.3828 255.443 30.6278 256.908 30.6278C258.413 30.6147 259.617 29.409 259.603 27.915Z" fill="white"/>
<path d="M218.31 27.8895C218.323 31.8342 215.222 34.9796 211.31 34.9796C207.424 34.9927 204.323 31.8867 204.218 28.086C204.127 24.2985 207.162 20.8779 211.231 20.8517C215.144 20.8255 218.297 23.9709 218.31 27.8895ZM211.284 25.2683C209.753 25.2683 208.588 26.4216 208.588 27.9288C208.588 29.4097 209.805 30.6285 211.284 30.6154C212.762 30.6023 213.979 29.3704 213.966 27.8895C213.94 26.4347 212.749 25.2683 211.284 25.2683Z" fill="white"/>
<path d="M182.577 82.3943C182.355 82.1322 182.158 81.9094 181.949 81.6604C183.401 80.1009 183.702 78.1874 183.729 76.1954C183.742 74.9897 183.729 73.7708 183.729 72.552C182.538 73.7053 181.4 74.8193 180.222 75.9726C179.947 75.6449 179.764 75.4221 179.555 75.1731C182.015 73.3646 183.794 71.058 185.129 68.2403C183.336 68.2403 181.661 68.2403 179.947 68.2403C179.947 67.9126 179.947 67.6636 179.947 67.3229C180.811 67.3229 181.661 67.3229 182.499 67.3229C183.218 67.3229 183.951 67.2573 184.658 67.336C185.416 67.4277 185.757 67.1001 185.94 66.4186C186.084 65.855 186.306 65.3046 186.502 64.7148C186.803 64.7804 187.065 64.8328 187.418 64.9114C187.144 65.7109 186.895 66.471 186.607 67.3098C190.022 67.3098 193.372 67.3098 196.76 67.3098C196.76 67.6243 196.76 67.8733 196.76 68.2272C196.551 68.2272 196.316 68.2272 196.093 68.2272C192.979 68.2272 189.865 68.2403 186.738 68.2141C186.306 68.2141 186.097 68.3451 185.914 68.7383C185.6 69.446 185.194 70.1144 184.801 70.8745C188.007 70.8745 191.134 70.8745 194.34 70.8745C194.366 71.1235 194.392 71.3332 194.392 71.5429C194.392 74.6882 194.392 77.8205 194.392 80.9658C194.392 81.8701 194.17 82.1584 193.267 82.224C192.416 82.2895 191.566 82.2764 190.716 82.2895C190.087 82.3026 190.244 81.7391 190.061 81.4245C190.912 81.4245 191.71 81.4376 192.508 81.4245C193.463 81.4114 193.463 81.4114 193.463 80.4809C193.463 79.8256 193.463 79.1835 193.463 78.4889C193.228 78.4758 193.031 78.4495 192.848 78.4495C190.271 78.4495 187.706 78.4627 185.129 78.4364C184.644 78.4364 184.474 78.5806 184.383 79.0655C184.108 80.4023 183.48 81.5425 182.577 82.3943ZM193.411 75.0945C190.454 75.0945 187.575 75.0945 184.684 75.0945C184.684 75.9333 184.684 76.7065 184.684 77.4797C187.615 77.4797 190.493 77.4797 193.411 77.4797C193.411 76.6803 193.411 75.9071 193.411 75.0945ZM193.398 74.164C193.398 73.3383 193.398 72.5651 193.398 71.805C190.467 71.805 187.588 71.805 184.697 71.805C184.697 72.6175 184.697 73.3646 184.697 74.164C187.601 74.164 190.467 74.164 193.398 74.164Z" fill="white"/>
<path d="M217.983 65.6445C217.983 68.3967 217.983 71.0834 217.983 73.8749C216.583 73.8749 215.196 73.8749 213.626 73.8749C214.097 75.0675 214.516 76.129 215 77.3348C216.256 76.4698 217.407 75.6703 218.611 74.8447C218.781 75.002 218.977 75.1854 219.291 75.4738C218.022 76.3387 216.792 77.1775 215.536 78.0163C216.557 79.5103 217.865 80.6505 219.54 81.332C219.03 82.2756 219.03 82.2756 218.14 81.7645C215.641 80.3228 214.228 78.0687 213.286 75.4344C213.103 74.9364 213.024 74.1239 212.697 74.0059C212.069 73.77 211.297 73.9404 210.564 73.9404C210.564 76.2732 210.564 78.5536 210.564 80.8864C211.847 80.5719 213.076 80.2573 214.411 79.9166C214.424 80.2442 214.437 80.4801 214.45 80.7553C212.789 81.2533 211.14 81.7383 209.452 82.2363C209.334 82.0266 209.19 81.7907 209.06 81.5548C209.125 81.5679 209.19 81.5679 209.243 81.581C209.36 81.0306 209.596 80.4932 209.596 79.9428C209.622 75.4476 209.609 70.9654 209.609 66.4702C209.609 66.2081 209.609 65.946 209.609 65.6445C212.422 65.6445 215.17 65.6445 217.983 65.6445ZM217.093 70.1398C214.882 70.1398 212.736 70.1398 210.59 70.1398C210.59 71.1358 210.59 72.0794 210.59 73.0099C212.789 73.0099 214.934 73.0099 217.093 73.0099C217.093 72.0401 217.093 71.1227 217.093 70.1398ZM210.564 69.2355C212.789 69.2355 214.934 69.2355 217.054 69.2355C217.054 68.2919 217.054 67.3876 217.054 66.4833C214.856 66.4833 212.71 66.4833 210.564 66.4833C210.564 67.4269 210.564 68.3181 210.564 69.2355Z" fill="white"/>
<path d="M124.509 78.751C126.053 80.1009 127.78 80.9658 129.677 81.5294C129.337 82.4075 129.298 82.4206 128.487 82.1453C126.734 81.5425 125.177 80.612 123.777 79.3538C122.023 80.7037 120.113 81.7129 117.967 82.355C117.876 82.2109 117.784 82.0798 117.692 81.9356C117.614 81.8046 117.535 81.6735 117.431 81.5163C119.485 80.9134 121.356 80.0484 123.018 78.7248C122.481 78.004 121.892 77.3618 121.461 76.6279C120.885 75.658 120.388 74.6489 119.904 73.6267C119.72 73.2204 119.563 72.8797 119.001 72.9714C119.001 72.6831 119.001 72.4341 119.001 72.0802C120.427 72.0802 121.853 72.0802 123.305 72.0802C123.305 70.9531 123.305 69.9178 123.305 68.8038C121.722 68.8038 120.165 68.8038 118.556 68.8038C118.556 68.5024 118.556 68.2796 118.556 67.9519C120.113 67.9519 121.683 67.9519 123.332 67.9519C123.332 66.8249 123.332 65.7895 123.332 64.7148C123.659 64.7148 123.907 64.7148 124.261 64.7148C124.261 65.5667 124.3 66.4055 124.248 67.2442C124.221 67.8078 124.431 67.9388 124.954 67.9388C126.328 67.9126 127.689 67.9257 129.102 67.9257C129.102 68.214 129.102 68.4499 129.102 68.7907C128.657 68.7907 128.212 68.7907 127.767 68.7907C126.786 68.7907 125.805 68.8038 124.823 68.7776C124.418 68.7645 124.234 68.8824 124.248 69.328C124.274 70.2192 124.261 71.1104 124.261 72.0016C125.726 72.2113 127.139 71.8574 128.605 72.2375C127.833 74.8455 126.42 76.9162 124.509 78.751ZM120.61 72.9976C121.356 74.9897 122.376 76.6672 123.842 78.0826C125.412 76.6148 126.629 75.0159 127.375 72.9976C125.085 72.9976 122.926 72.9976 120.61 72.9976Z" fill="white"/>
<path d="M136.036 65.4102C137.737 65.4102 139.347 65.4102 141.035 65.4102C141.048 65.633 141.074 65.8689 141.074 66.0917C141.074 70.9932 141.074 75.9078 141.074 80.8093C141.074 81.7922 140.864 82.015 139.883 82.1329C139.517 82.1723 139.137 82.1461 138.784 82.1985C138.104 82.3033 137.907 81.9364 137.881 81.3204C138.483 81.3204 139.072 81.3073 139.648 81.3204C140.014 81.3335 140.21 81.2156 140.21 80.7962C140.197 78.8303 140.21 76.8776 140.21 74.7676C139.216 75.3442 138.313 75.8816 137.384 76.432C137.24 76.2223 137.096 76.0126 136.9 75.7374C136.73 76.9038 136.625 78.0309 136.377 79.1055C136.128 80.1933 135.735 81.2549 135.382 82.4082C135.016 82.1854 134.78 82.0412 134.532 81.8839C135.945 78.7779 136.063 75.5015 136.063 72.1989C136.036 69.9709 136.036 67.7299 136.036 65.4102ZM136.926 75.5932C137.96 75.0559 138.98 74.5317 139.988 73.9943C140.093 73.9419 140.184 73.7584 140.184 73.6405C140.21 73.0376 140.197 72.4479 140.197 71.7402C139.909 71.9237 139.713 72.0547 139.53 72.1727C138.706 71.2946 137.907 70.4427 137.07 69.5646C137.253 69.4336 137.436 69.2894 137.777 69.0404C138.549 69.8792 139.321 70.7179 140.145 71.6091C140.145 69.7743 140.145 68.0444 140.145 66.3144C139.059 66.3144 138.025 66.3144 136.926 66.3144C136.926 69.4074 136.926 72.4479 136.926 75.5932Z" fill="white"/>
<path d="M59.3762 71.3332C57.6753 74.3344 55.765 76.9817 53.1482 79.1048C53.0173 78.9607 52.8996 78.8296 52.7818 78.7117C52.6771 78.5937 52.5855 78.4889 52.4678 78.3447C55.3463 76.1036 57.4267 73.2466 59.0753 69.9047C57.0996 69.9047 55.2155 69.9047 53.279 69.9047C53.2659 69.577 53.2528 69.328 53.2397 69.0004C53.5014 68.9873 53.7239 68.9611 53.9594 68.9611C55.5295 68.9611 57.0996 68.9349 58.6697 68.9742C59.2846 68.9873 59.5071 68.83 59.4809 68.1878C59.4286 67.0476 59.4678 65.8944 59.4678 64.7148C59.8211 64.7148 60.0828 64.7148 60.4099 64.7148C60.4099 66.104 60.4099 67.467 60.4099 68.9349C61.1164 68.9349 61.7837 68.9349 62.4903 68.9349C62.4903 69.2887 62.4903 69.5508 62.4903 69.8785C61.823 69.8785 61.1819 69.8785 60.423 69.8785C60.423 70.1668 60.423 70.4027 60.423 70.6255C60.423 73.9412 60.423 77.2569 60.423 80.5596C60.423 81.9356 60.2005 82.1847 58.8398 82.3288C58.6697 82.3419 58.4865 82.355 58.3164 82.355C57.6622 82.355 57.008 82.355 56.3145 82.355C56.2099 82.0536 56.0921 81.7522 55.9743 81.3983C56.9295 81.3983 57.8454 81.3852 58.7613 81.3983C59.2454 81.3983 59.4809 81.241 59.4809 80.7168C59.4678 77.7025 59.4678 74.7013 59.4678 71.687C59.4547 71.6346 59.4286 71.5691 59.3762 71.3332Z" fill="white"/>
<path d="M93.2382 70.2057C93.2382 69.013 93.2382 67.9384 93.2382 66.8244C92.4531 66.9555 91.6943 67.0472 90.9615 67.2307C90.3989 67.3748 90.1372 67.2176 90.098 66.6016C91.2101 66.3657 92.3223 66.1429 93.4344 65.8808C94.1541 65.7104 94.8737 65.5269 95.5541 65.2386C96.1821 64.9765 96.5223 65.1338 96.784 65.8284C96.0775 66.0381 95.3971 66.2609 94.6905 66.4443C94.3503 66.5361 94.1933 66.6802 94.2064 67.0603C94.2326 68.0825 94.2195 69.0917 94.2195 70.1663C95.2793 70.1663 96.2606 70.1663 97.2812 70.1663C97.2812 70.4678 97.2812 70.7168 97.2812 71.0575C96.2868 71.0575 95.2793 71.0575 94.2718 71.0575C94.2195 71.1231 94.1803 71.1886 94.1279 71.2541C95.1092 72.5647 96.0775 73.8621 97.0849 75.212C96.8887 75.4479 96.6924 75.6838 96.4831 75.9459C95.7765 74.8713 95.0831 73.8228 94.3896 72.7875C94.3373 72.8006 94.298 72.8137 94.2457 72.8268C94.2457 75.959 94.2457 79.1044 94.2457 82.2891C93.8924 82.2891 93.6307 82.2891 93.2905 82.2891C93.2905 79.2485 93.2905 76.2342 93.2905 73.22C92.3223 75.0678 91.4456 76.9289 90.0849 78.5671C89.9017 78.2787 89.7447 78.0297 89.5615 77.7676C91.1578 75.7887 92.283 73.5738 93.1597 71.1099C92.0475 71.1099 91.0008 71.1099 89.8886 71.1099C89.8755 70.7823 89.8625 70.5333 89.8494 70.2188C90.9485 70.2057 92.0606 70.2057 93.2382 70.2057Z" fill="white"/>
<path d="M16.0536 73.7715C16.0536 75.5935 16.0536 77.3761 16.0536 79.2112C12.2332 79.2112 8.43895 79.2112 4.60547 79.2112C4.60547 77.4154 4.60547 75.6197 4.60547 73.7715C8.38662 73.7715 12.1939 73.7715 16.0536 73.7715ZM10.7547 78.5165C12.2593 78.5165 13.6855 78.5165 15.1508 78.5165C15.1508 77.9528 15.1508 77.4154 15.1508 76.878C13.6593 76.878 12.2201 76.878 10.7547 76.878C10.7547 77.4416 10.7547 77.966 10.7547 78.5165ZM9.79964 76.878C8.3212 76.878 6.92126 76.878 5.50823 76.878C5.50823 77.4548 5.50823 77.9791 5.50823 78.5165C6.96051 78.5165 8.37353 78.5165 9.79964 78.5165C9.79964 77.9528 9.79964 77.4416 9.79964 76.878ZM15.1508 76.0784C15.1508 75.5148 15.1508 75.0298 15.1508 74.5055C13.6724 74.5055 12.2332 74.5055 10.7678 74.5055C10.7678 75.0429 10.7678 75.5541 10.7678 76.0784C12.2463 76.0784 13.6724 76.0784 15.1508 76.0784ZM9.79964 74.5186C8.3212 74.5186 6.92126 74.5186 5.50823 74.5186C5.50823 75.0692 5.50823 75.5672 5.50823 76.0653C6.97359 76.0653 8.37353 76.0653 9.79964 76.0653C9.79964 75.541 9.79964 75.0429 9.79964 74.5186Z" fill="white"/>
<path d="M49.6808 82.3425C49.3013 82.3425 49.0658 82.3425 48.7387 82.3425C48.7387 78.9875 48.7387 75.6586 48.7387 72.3167C48.6995 72.3167 48.6471 72.3036 48.6079 72.3036C48.1238 73.3782 47.692 74.4791 47.1424 75.5145C46.5929 76.5629 45.9256 77.5589 45.2583 78.6598C44.9836 78.2797 44.7873 78.0307 44.6826 77.8866C45.4677 76.5498 46.2789 75.3179 46.9331 73.9942C47.5742 72.6967 48.0453 71.3207 48.6471 69.8528C47.4434 69.8528 46.4359 69.8528 45.3761 69.8528C45.3761 69.5252 45.3761 69.2762 45.3761 68.9354C46.4621 68.9354 47.5611 68.9354 48.7256 68.9354C48.7256 67.4807 48.7256 66.1177 48.7256 64.7285C49.0527 64.7285 49.3013 64.7285 49.6284 64.7285C49.6284 66.1046 49.6284 67.4676 49.6284 68.8961C50.5705 68.8961 51.4602 68.8961 52.4023 68.8961C52.4154 69.2106 52.4285 69.4728 52.4415 69.8135C51.5126 69.8135 50.6098 69.8135 49.5107 69.8135C49.707 70.2329 49.7985 70.5343 49.9817 70.7702C50.7668 71.7662 51.578 72.7361 52.3761 73.719C52.978 74.466 52.978 74.466 52.2322 75.1606C51.4341 74.0466 50.6228 72.9458 49.8247 71.8318C49.7855 71.8449 49.7331 71.8449 49.6939 71.858C49.6808 75.3179 49.6808 78.804 49.6808 82.3425Z" fill="white"/>
<path d="M262.966 66.0391C262.966 66.3143 262.966 66.5371 262.966 66.7468C262.966 71.242 262.966 75.7372 262.966 80.2325C262.966 80.4946 262.94 80.7567 262.927 81.0188C262.888 81.7134 262.469 82.0542 261.828 82.0935C260.873 82.1459 259.917 82.1459 258.949 82.1459C258.583 82.1459 258.583 82.1197 258.334 81.1892C259.25 81.1892 260.166 81.2023 261.069 81.1892C261.945 81.163 261.985 81.1237 261.985 80.2587C261.985 76.0518 261.985 71.8449 261.985 67.6248C261.985 67.4283 261.985 67.2317 261.985 66.9696C257.235 66.9696 252.525 66.9696 247.762 66.9696C247.762 66.6288 247.762 66.3667 247.762 66.0522C252.787 66.0391 257.837 66.0391 262.966 66.0391Z" fill="white"/>
<path d="M203.001 65.4759C204.598 65.4759 206.142 65.4628 207.686 65.489C208.248 65.5021 208.444 65.8167 208.222 66.3409C207.686 67.6646 207.149 69.0014 206.573 70.3119C206.403 70.692 206.403 70.941 206.691 71.2817C207.816 72.6054 208.431 74.1256 208.222 75.908C208.052 77.3103 206.809 78.136 205.487 77.6642C205.278 77.5855 205.173 77.2055 204.964 76.8647C205.435 76.8647 205.762 76.8647 206.076 76.8647C206.901 76.8516 207.228 76.5895 207.359 75.777C207.555 74.5975 207.188 73.5359 206.6 72.5399C206.495 72.3564 206.39 72.1336 206.233 72.0025C205.435 71.3079 205.448 70.6002 205.932 69.6828C206.456 68.6737 206.796 67.5597 207.241 66.4326C206.076 66.4326 205.016 66.4326 203.878 66.4326C203.878 71.7142 203.878 76.9958 203.878 82.3167C203.551 82.3167 203.302 82.3167 203.001 82.3167C203.001 76.7468 203.001 71.1507 203.001 65.4759Z" fill="white"/>
<path d="M226.697 81.2051C226.579 80.8643 226.474 80.5891 226.396 80.3531C229.274 77.4957 231.185 74.0352 233.173 70.5879C233.291 70.6403 233.422 70.6796 233.527 70.7321C233.697 70.8107 233.88 70.9025 234.115 71.0204C232.375 74.127 230.517 77.1286 228.149 80.0123C231.564 79.8288 234.822 79.6453 238.25 79.4618C237.321 78.1117 236.444 76.8665 235.528 75.5426C235.79 75.4246 236.039 75.3067 236.405 75.1363C237.883 77.2859 239.349 79.4094 240.84 81.5853C240.605 81.7295 240.474 81.8212 240.33 81.913C240.199 81.9916 240.068 82.0571 239.898 82.1358C239.82 82.0178 239.728 81.9261 239.663 81.8212C238.799 80.34 238.799 80.3269 237.072 80.4449C233.919 80.6546 230.779 80.8643 227.626 81.0872C227.338 81.0872 227.037 81.1527 226.697 81.2051Z" fill="white"/>
<path d="M142.186 82.5012C141.924 82.108 141.78 81.8721 141.584 81.5575C143.259 80.9938 144.829 80.2991 146.255 79.1981C144.907 77.8349 143.952 76.2619 143.219 74.5448C143.128 74.322 142.683 74.2434 142.317 74.0598C142.317 73.9419 142.317 73.6797 142.317 73.4045C143.599 73.1554 150.899 73.2996 151.41 73.6011C150.716 75.8032 149.46 77.6383 147.72 79.2374C149.042 80.3647 150.546 81.0463 152.208 81.5313C151.985 81.8327 151.789 82.0818 151.593 82.357C149.892 81.8589 148.374 81.0332 147.105 79.9583C145.444 80.8103 143.834 81.6492 142.186 82.5012ZM144.161 74.2827C144.449 75.5672 145.941 77.7824 147.027 78.5558C148.27 77.6645 149.879 75.4099 150.088 74.2827C148.1 74.2827 146.137 74.2827 144.161 74.2827Z" fill="white"/>
<path d="M2.72151 67.2972C2.59067 72.3691 3.12712 77.441 0.641126 82.1328C0.471031 82.0279 0.353273 81.9493 0.222431 81.8707C0.117758 81.8051 0 81.7265 0 81.7134C0.444863 80.298 1.02057 78.9481 1.26917 77.5327C1.58319 75.7241 1.67478 73.8631 1.76637 72.0152C1.84487 70.4295 1.77945 68.8306 1.77945 67.2448C1.77945 67.0089 1.77945 66.773 1.77945 66.4715C4.34396 66.4715 6.84304 66.4715 9.42063 66.4715C9.22436 65.8818 9.05427 65.41 8.88417 64.9251C9.74773 64.5057 9.74773 64.5057 10.0748 65.3838C10.4935 66.4715 10.4935 66.4715 11.6449 66.4715C13.3197 66.4715 14.9945 66.4715 16.6693 66.4715C16.9048 66.4715 17.1403 66.4715 17.4151 66.4715C17.4151 66.773 17.4151 66.9958 17.4151 67.2841C12.5477 67.2972 7.68043 67.2972 2.72151 67.2972Z" fill="white"/>
<path d="M115.913 64.7162C115.913 66.0661 115.913 67.3636 115.913 68.7397C116.711 68.7397 117.444 68.7397 118.19 68.7397C118.19 69.0673 118.19 69.3294 118.19 69.6439C117.444 69.6439 116.711 69.6439 115.939 69.6439C115.939 71.138 115.939 72.5665 115.939 74.0737C116.724 73.8509 117.483 73.6281 118.294 73.4053C118.334 73.7198 118.36 73.9688 118.386 74.2571C117.719 74.4668 117.117 74.7027 116.489 74.86C116.031 74.9779 115.874 75.1876 115.874 75.6725C115.9 77.4549 115.887 79.2504 115.887 81.0327C115.887 81.9239 115.704 82.1467 114.814 82.2778C114.408 82.3433 113.99 82.304 113.584 82.3564C112.917 82.4613 112.616 82.1729 112.577 81.4652C113.205 81.4652 113.819 81.4914 114.434 81.4521C114.618 81.439 114.932 81.2424 114.932 81.1114C114.958 79.2242 114.958 77.3239 114.958 75.358C114.068 75.6201 113.27 75.8691 112.393 76.1312C112.289 75.8298 112.21 75.5677 112.105 75.227C112.943 74.9779 113.754 74.7551 114.539 74.493C114.709 74.4275 114.945 74.2047 114.945 74.0343C114.971 72.6058 114.958 71.1642 114.958 69.6571C114.068 69.6571 113.231 69.6571 112.354 69.6571C112.354 69.3425 112.354 69.0804 112.354 68.7528C113.165 68.7528 114.003 68.7528 114.932 68.7528C114.932 67.3636 114.932 66.053 114.932 64.7031C115.298 64.7162 115.547 64.7162 115.913 64.7162Z" fill="white"/>
<path d="M6.41083 48.9255C6.48933 48.9779 6.55475 49.0304 6.63325 49.0566C8.12477 49.7644 8.56962 50.5771 8.36028 52.1762C8.20328 53.4083 7.20892 54.457 5.7959 54.588C4.42213 54.706 3.02219 54.6143 1.56991 54.6143C1.55683 54.4701 1.53066 54.2603 1.53066 54.0506C1.53066 50.9048 1.54375 47.772 1.51758 44.6262C1.51758 44.0232 1.71383 43.879 2.26334 43.9052C3.37544 43.9577 4.48755 43.9053 5.58656 43.997C6.93417 44.1281 7.61452 44.7573 7.83694 45.8845C8.11169 47.3264 7.79769 48.0211 6.54166 48.7682C6.48933 48.7944 6.46316 48.86 6.41083 48.9255ZM2.32876 53.9327C3.41469 53.9327 4.43521 54.0113 5.44264 53.9064C6.69867 53.7885 7.56218 52.8578 7.61452 51.7568C7.67993 50.6688 7.02576 49.6202 5.91365 49.4367C4.74922 49.2401 3.54553 49.2794 2.32876 49.2008C2.32876 50.8654 2.32876 52.3597 2.32876 53.9327ZM2.32876 48.4798C3.41469 48.4798 4.40904 48.5323 5.40339 48.4667C6.46316 48.3881 7.07809 47.6803 7.14351 46.6841C7.19584 45.7928 6.71175 44.9932 5.7959 44.8621C4.67071 44.6917 3.51936 44.7179 2.32876 44.6524C2.32876 46.0025 2.32876 47.2084 2.32876 48.4798Z" fill="white"/>
<path d="M171.468 73.6145C170.081 73.6145 168.825 73.6145 167.517 73.6145C167.085 77.1143 166.13 80.3257 162.82 82.305C162.598 82.069 162.388 81.8593 162.14 81.5971C165.254 79.8407 166.182 76.9439 166.523 73.6145C165.685 73.6145 164.887 73.6145 164.063 73.6145C164.063 73.2868 164.063 73.0378 164.063 72.7363C166.85 72.7363 169.623 72.7363 172.554 72.7363C172.266 75.371 172.031 77.9925 171.691 80.5878C171.521 81.82 171.036 82.1346 169.767 82.1477C169.179 82.1477 168.59 82.1477 167.975 82.1477C167.883 81.8331 167.805 81.5709 167.739 81.3219C168.354 81.3219 168.93 81.3219 169.519 81.3219C170.33 81.335 170.618 81.1908 170.762 80.3912C170.997 79.0936 171.154 77.7697 171.298 76.4458C171.39 75.5283 171.416 74.5976 171.468 73.6145Z" fill="white"/>
<path d="M29.4657 75.778C29.3872 75.5683 29.3087 75.3717 29.191 75.0833C29.7143 75.0833 30.1722 75.0833 30.6825 75.0833C30.6825 73.6939 30.6825 72.3962 30.6825 70.9544C29.7405 72.4749 28.8246 73.8774 27.4116 74.9523C27.2284 74.7556 27.0584 74.5721 26.8359 74.3493C28.3667 73.1827 29.4526 71.7146 30.3423 69.9451C29.4265 69.9451 28.5891 69.9451 27.7387 69.9451C27.7387 69.6567 27.7387 69.447 27.7387 69.1717C28.8377 69.1717 29.9106 69.1717 30.9965 69.1717C31.0227 69.1193 31.0358 69.0538 31.0619 69.0013C30.3162 68.5426 29.5835 68.0838 28.8116 67.6119C28.9816 67.3236 29.2041 66.9041 29.5966 67.2449C30.5255 68.0183 31.1143 67.4415 31.7423 66.8386C31.8993 66.6944 32.0694 66.5633 32.2394 66.4191C32.2264 66.3667 32.2002 66.3143 32.1871 66.2618C30.8395 66.2618 29.4919 66.2618 28.105 66.2618C28.105 65.9604 28.105 65.7506 28.105 65.4623C29.7928 65.4623 31.4675 65.4492 33.1422 65.4754C33.3385 65.4754 33.5478 65.6589 33.8749 65.8293C32.9852 66.6682 32.1871 67.4284 31.389 68.1887C31.6507 68.4639 31.9254 68.7654 32.2133 69.0669C32.1871 69.1324 32.1609 69.1849 32.1479 69.2504C32.8413 69.2504 33.5347 69.2504 34.3328 69.2504C34.0057 70.0631 33.7179 70.7447 33.4693 71.4394C33.2861 71.9637 32.9983 72.003 32.5796 71.6753C32.789 71.151 32.9983 70.6005 33.2207 69.9975C32.6712 69.9975 32.1871 69.9975 31.5853 69.9975C31.5853 70.3383 31.5853 70.7053 31.5853 71.0593C31.5853 72.239 31.5853 73.4186 31.5853 74.5852C31.5853 75.5159 31.4283 75.6994 30.5124 75.778C30.1853 75.8043 29.8321 75.778 29.4657 75.778Z" fill="white"/>
<path d="M258.007 78.7012C255.377 78.7012 252.787 78.7012 250.131 78.7012C250.105 79.1862 250.078 79.6318 250.052 80.1037C249.764 80.1037 249.516 80.1037 249.215 80.1037C249.215 77.6525 249.215 75.2014 249.215 72.7109C252.132 72.7109 255.05 72.7109 258.007 72.7109C258.007 74.6902 258.007 76.6564 258.007 78.7012ZM250.131 77.7705C252.486 77.7705 254.775 77.7705 257.078 77.7705C257.078 76.3418 257.078 74.9655 257.078 73.5892C254.736 73.5892 252.446 73.5892 250.131 73.5892C250.131 74.9786 250.131 76.3418 250.131 77.7705Z" fill="white"/>
<path d="M103.941 64.7148C104.294 64.7148 104.556 64.7148 104.87 64.7148C104.87 68.5548 104.87 72.3554 104.87 76.2085C105.707 76.0774 106.479 75.9595 107.317 75.8415C107.369 76.1036 107.434 76.3658 107.5 76.6803C106.61 76.8376 105.76 76.9817 104.883 77.139C104.883 78.8689 104.883 80.5596 104.883 82.3026C104.569 82.3026 104.307 82.3026 103.954 82.3026C103.954 80.6382 103.954 78.9738 103.954 77.2569C101.677 77.6108 99.4923 77.9384 97.2549 78.2923C97.2156 78.004 97.1764 77.7418 97.124 77.4142C99.4007 77.0603 101.638 76.7065 103.941 76.3395C103.941 72.4734 103.941 68.6203 103.941 64.7148Z" fill="white"/>
<path d="M242.175 49.6705C242.175 52.6066 239.846 54.9791 236.942 54.9922C234.024 55.0053 231.604 52.5935 231.617 49.6705C231.63 46.7999 234.011 44.4274 236.876 44.4143C239.781 44.3881 242.175 46.7606 242.175 49.6705ZM232.428 49.618C232.376 52.1478 234.39 54.2713 236.876 54.3237C239.258 54.3761 241.377 52.2527 241.416 49.7622C241.469 47.298 239.441 45.1614 236.981 45.0828C234.587 45.0041 232.48 47.1145 232.428 49.618Z" fill="white"/>
<path d="M134.571 49.6973C134.584 52.6072 132.216 54.9928 129.311 54.9928C126.407 54.9928 124.025 52.6203 124.025 49.7235C124.025 46.8004 126.38 44.4279 129.285 44.4279C132.19 44.4017 134.558 46.7742 134.571 49.6973ZM124.837 49.671C124.823 52.2402 126.838 54.3374 129.311 54.3243C131.745 54.3243 133.773 52.227 133.773 49.7104C133.773 47.1937 131.758 45.1096 129.324 45.0833C126.891 45.0571 124.85 47.1412 124.837 49.671Z" fill="white"/>
<path d="M220.625 49.7497C220.612 52.6596 218.231 55.0059 215.314 54.9928C212.448 54.9797 210.08 52.6072 210.08 49.7366C210.08 46.7873 212.461 44.4017 215.405 44.4279C218.297 44.4279 220.639 46.8136 220.625 49.7497ZM210.891 49.6973C210.878 52.2402 212.854 54.285 215.327 54.3243C217.747 54.3636 219.814 52.2533 219.827 49.7497C219.84 47.2068 217.799 45.0702 215.34 45.0833C212.893 45.0964 210.904 47.1544 210.891 49.6973Z" fill="white"/>
<path d="M34.9351 54.7182C34.9351 51.3626 34.9351 48.0594 34.9351 44.6645C36.1257 44.6645 37.3032 44.6252 38.4938 44.6777C40.6002 44.7694 42.2618 45.9753 42.7721 47.8235C43.387 50.0518 43.0207 52.5161 41.189 53.7351C40.4432 54.2332 39.5012 54.574 38.6115 54.7051C37.4209 54.8361 36.1911 54.7182 34.9351 54.7182ZM35.707 54.0759C36.6752 54.0759 37.5649 54.1283 38.4415 54.0628C40.1816 53.9317 41.7254 52.6209 42.0918 50.9038C42.5366 48.8721 42.0656 47.0502 40.4432 45.9753C38.9648 45.0053 37.3293 45.333 35.707 45.3068C35.707 48.2692 35.707 51.1398 35.707 54.0759Z" fill="white"/>
<path d="M160.425 82.3435C160.059 82.3435 159.797 82.3435 159.457 82.3435C159.457 78.5691 159.457 74.8209 159.457 70.8892C158.633 71.8852 157.913 72.7371 157.154 73.6545C156.919 73.3268 156.736 73.0647 156.526 72.7764C158.371 70.9023 159.771 68.7399 160.883 66.3809C161.027 66.0663 161.211 65.7649 161.302 65.4241C161.485 64.7426 161.852 64.6902 162.493 65.0965C161.891 66.3022 161.276 67.521 160.7 68.753C160.543 69.0937 160.412 69.4869 160.412 69.8539C160.386 73.7331 160.399 77.6124 160.399 81.5048C160.425 81.7669 160.425 82.029 160.425 82.3435Z" fill="white"/>
<path d="M70.6153 64.7031C70.9817 64.7031 71.2172 64.7031 71.5574 64.7031C71.5574 66.8524 71.5574 69.0018 71.5574 71.2166C72.7219 71.2166 73.7948 71.2166 74.9069 71.2166C74.9069 71.5443 74.9069 71.7933 74.9069 72.1209C73.834 72.1209 72.748 72.1209 71.5966 72.1209C71.5966 75.5546 71.5966 78.9096 71.5966 82.3171C71.2564 82.3171 71.0078 82.3171 70.6807 82.3171C70.6807 78.9621 70.6807 75.5939 70.6807 72.1471C69.5686 72.1471 68.5349 72.1471 67.4751 72.1471C67.4751 71.8195 67.4751 71.5574 67.4751 71.2428C68.5087 71.2428 69.5162 71.2428 70.6284 71.2428C70.6153 69.0542 70.6153 66.9049 70.6153 64.7031Z" fill="white"/>
<path d="M36.4002 64.7031C36.7534 64.7031 36.9628 64.7031 37.2375 64.7031C37.2375 65.7124 37.2375 66.7086 37.2375 67.7834C38.1272 67.7834 38.9645 67.7834 39.8542 67.7834C39.8542 68.0849 39.8542 68.3078 39.8542 68.6092C39.0038 68.6092 38.1665 68.6092 37.316 68.6092C37.2637 68.6617 37.2114 68.7141 37.159 68.7665C38.2319 70.4967 39.3047 72.2401 40.4168 74.0227C40.2075 74.2193 40.0112 74.4028 39.815 74.5863C39.0038 73.1838 38.2057 71.8075 37.4207 70.4443C37.3814 70.4574 37.3291 70.4705 37.2899 70.4836C37.2899 72.3974 37.2899 74.3242 37.2899 76.3035C36.9889 76.3166 36.7665 76.3297 36.4656 76.3428C36.4656 74.3766 36.4656 72.4498 36.4656 70.5098C36.4133 70.4967 36.3609 70.4705 36.3086 70.4574C35.5759 72.0041 34.8825 73.5902 33.5741 74.8747C33.404 74.665 33.247 74.4553 33.0508 74.2193C34.5031 72.6595 35.4582 70.7851 36.1385 68.6354C35.4451 68.6354 34.8301 68.6354 34.189 68.6354C34.189 68.3471 34.189 68.1373 34.189 67.849C34.8956 67.849 35.6021 67.849 36.4133 67.849C36.4002 66.7872 36.4002 65.778 36.4002 64.7031Z" fill="white"/>
<path d="M206.495 52.5951C206.495 50.0654 206.495 47.5487 206.495 44.9533C206.756 44.9533 206.966 44.9533 207.227 44.9533C207.227 48.1254 207.227 51.2844 207.227 54.6006C204.663 51.9398 202.19 49.3575 199.56 46.6442C199.56 49.4624 199.56 52.0577 199.56 54.6924C199.272 54.6924 199.076 54.6924 198.828 54.6924C198.828 51.4417 198.828 48.191 198.828 44.8223C201.379 47.4962 203.852 50.0916 206.338 52.6869C206.403 52.6607 206.442 52.6345 206.495 52.5951Z" fill="white"/>
<path d="M81.5536 64.7031C81.8807 64.7031 82.0901 64.7031 82.391 64.7031C82.391 68.3727 82.391 72.0554 82.391 75.8167C83.2676 75.6725 84.0396 75.5546 84.8116 75.4235C85.1387 76.1968 85.1387 76.223 84.3667 76.3671C84.2751 76.3802 84.1966 76.4065 84.1181 76.4327C83.5686 76.5637 82.8097 76.5113 82.548 76.852C82.2732 77.2059 82.4433 77.9398 82.4433 78.5034C82.4433 79.7615 82.4433 81.0196 82.4433 82.3171C82.1555 82.3171 81.92 82.3171 81.5929 82.3171C81.5929 80.5347 81.5929 78.7393 81.5929 76.8783C79.3816 77.2845 77.2751 77.6646 75.1293 78.0578C75.0639 77.7694 74.9984 77.5335 74.9199 77.2059C76.2676 76.9569 77.5629 76.721 78.8583 76.4851C79.5648 76.354 80.2714 76.1837 80.9779 76.1181C81.5144 76.0788 81.5929 75.8167 81.5929 75.358C81.5798 72.0816 81.5798 68.8183 81.5798 65.5419C81.5536 65.2929 81.5536 65.0308 81.5536 64.7031Z" fill="white"/>
<path d="M85.7016 44.8477C88.279 47.5478 90.7387 50.117 93.3293 52.8434C93.3293 50.0907 93.3293 47.5347 93.3293 44.9525C93.6171 44.9525 93.8264 44.9525 94.062 44.9525C94.062 48.1377 94.062 51.2835 94.062 54.6129C91.4976 51.952 89.0248 49.3829 86.4342 46.6958C86.4342 49.4616 86.4342 52.0569 86.4342 54.7047C86.1595 54.7178 85.9501 54.7309 85.6885 54.744C85.7016 51.4802 85.7016 48.2426 85.7016 44.8477Z" fill="white"/>
<path d="M58.2896 54.5616C55.7383 51.9138 53.2917 49.3578 50.7011 46.6708C50.7011 49.4758 50.7011 52.0711 50.7011 54.7058C50.4264 54.7189 50.2432 54.732 49.9946 54.7451C49.9946 51.4813 49.9946 48.2568 49.9946 44.875C52.5198 47.5228 54.9795 50.0919 57.57 52.8052C57.57 50.0788 57.57 47.5359 57.57 44.9536C57.8578 44.9536 58.0541 44.9536 58.3027 44.9536C58.2896 48.0864 58.2896 51.2322 58.2896 54.5616Z" fill="white"/>
<path d="M187.457 44.9389C187.706 44.9389 187.902 44.9389 188.19 44.9389C188.19 46.4332 188.19 47.875 188.19 49.3693C190.388 49.3693 192.508 49.3693 194.719 49.3693C194.719 47.9012 194.719 46.4332 194.719 44.9258C195.007 44.9258 195.216 44.9258 195.465 44.9258C195.465 48.1896 195.465 51.4272 195.465 54.691C195.229 54.691 195.02 54.691 194.732 54.691C194.732 53.1705 194.732 51.65 194.732 50.0378C194.143 50.0378 193.633 50.0378 193.11 50.0378C191.67 50.0378 190.231 50.0509 188.805 50.0247C188.321 50.0116 188.164 50.1558 188.164 50.6539C188.19 51.9777 188.177 53.3016 188.177 54.6779C187.915 54.691 187.719 54.7041 187.444 54.7304C187.457 51.4796 187.457 48.242 187.457 44.9389Z" fill="white"/>
<path d="M6.48976 69.7616C5.56083 69.7616 4.76273 69.7616 3.9123 69.7616C3.89921 69.4995 3.88613 69.3028 3.87305 69.0407C4.73656 69.0407 5.56083 69.0407 6.45051 69.0407C6.47667 68.5819 6.48976 68.1887 6.51593 67.7299C6.80376 67.7299 7.06543 67.7299 7.37944 67.7299C7.40561 68.1494 7.41869 68.5557 7.44486 68.9882C9.35506 68.9882 11.2391 68.9882 13.1624 68.9882C13.1885 68.5557 13.2016 68.1494 13.2147 67.7168C13.5025 67.7168 13.7511 67.7168 14.0651 67.7168C14.0651 68.1231 14.0651 68.5164 14.0651 69.0145C14.9548 69.0145 15.7922 69.0145 16.6426 69.0145C16.6426 69.3028 16.6426 69.5126 16.6426 69.7616C15.8053 69.7616 15.0072 69.7616 14.1175 69.7616C14.1175 70.3383 14.1175 70.8758 14.1175 71.4394C11.54 71.4394 9.05413 71.4394 6.48976 71.4394C6.48976 70.8758 6.48976 70.3646 6.48976 69.7616ZM7.44486 70.7971C9.39431 70.7971 11.2522 70.7971 13.1493 70.7971C13.1493 70.4432 13.1493 70.1286 13.1493 69.814C11.226 69.814 9.34197 69.814 7.44486 69.814C7.44486 70.1548 7.44486 70.4563 7.44486 70.7971Z" fill="white"/>
<path d="M25.828 76.3021C25.4748 76.3021 25.2523 76.3021 24.9645 76.3021C24.9645 74.6112 24.9645 72.9465 24.9645 71.1376C24.3365 72.4353 23.7739 73.6019 23.172 74.8209C22.8842 74.5325 22.701 74.3359 22.4917 74.1262C23.6954 72.5139 24.3103 70.6526 24.8337 68.634C24.0879 68.634 23.4075 68.634 22.688 68.634C22.6749 68.3457 22.6618 68.136 22.6487 67.8476C23.4075 67.8476 24.1402 67.8476 24.9514 67.8476C24.9514 66.7596 24.9514 65.7504 24.9514 64.7148C25.2654 64.7148 25.5009 64.7148 25.8018 64.7148C25.8018 65.7372 25.8018 66.7334 25.8018 67.7952C26.4953 67.7952 27.1102 67.7952 27.7775 67.7952C27.7775 68.0966 27.7775 68.3195 27.7775 68.6078C27.1625 68.6078 26.5345 68.6078 25.6841 68.6078C25.8803 69.0404 25.9327 69.4074 26.1551 69.6171C26.7439 70.1939 27.398 70.7051 28.0522 71.2687C27.699 71.6488 27.542 71.8454 27.3326 72.0552C26.8485 71.4784 26.4037 70.9541 25.8542 70.3118C25.828 72.396 25.828 74.3097 25.828 76.3021Z" fill="white"/>
<path d="M252.904 46.0669C252.106 45.7654 251.347 45.3591 250.536 45.1887C248.56 44.7955 246.663 45.8834 245.813 47.7578C244.936 49.6846 245.446 51.913 247.069 53.2631C248.613 54.5607 250.732 54.6394 252.407 53.499C252.773 53.25 252.93 52.9747 252.917 52.529C252.891 51.8081 252.904 51.1003 252.904 50.3138C253.153 50.3007 253.362 50.2876 253.65 50.2745C253.65 51.31 253.663 52.28 253.637 53.25C253.637 53.4072 253.44 53.5776 253.297 53.7087C251.674 55.1375 249.241 55.3865 247.317 54.3248C245.342 53.2237 244.295 51.0085 244.688 48.7278C245.054 46.6043 246.781 44.9134 248.901 44.5202C250.104 44.2974 251.242 44.4809 252.315 45.0314C252.983 45.3591 252.969 45.3722 252.904 46.0669Z" fill="white"/>
<path d="M69.5292 46.1324C68.7703 45.8178 68.0507 45.3853 67.2657 45.2149C65.4209 44.8216 63.9033 45.5032 62.8304 47.0237C61.7314 48.5836 61.6398 50.2744 62.5557 51.9653C63.8248 54.3247 66.7555 55.0194 68.9535 53.5383C69.2937 53.3154 69.4638 53.0664 69.4376 52.6338C69.3984 51.8736 69.4245 51.1133 69.4245 50.3269C69.7124 50.3269 69.9217 50.3269 70.2095 50.3269C70.2095 51.31 70.2226 52.293 70.1964 53.263C70.1964 53.4334 69.9871 53.63 69.8301 53.7611C68.2077 55.1767 65.7611 55.3996 63.8509 54.3247C61.9276 53.2499 60.8679 50.9954 61.2473 48.8326C61.6529 46.5781 63.3407 44.9134 65.5125 44.5333C66.7293 44.3235 67.8414 44.5333 68.9273 45.0707C69.4899 45.3066 69.6862 45.6474 69.5292 46.1324Z" fill="white"/>
<path d="M11.2918 44.9397C11.5142 44.9397 11.7236 44.9397 12.0114 44.9397C12.0114 45.5427 11.9983 46.1325 12.0114 46.7093C12.0507 48.4264 11.9591 50.1566 12.1553 51.8606C12.417 54.0627 14.8113 55.1375 16.7346 54.0365C17.8074 53.4335 18.1084 52.3849 18.1345 51.2576C18.1738 49.4226 18.1476 47.6006 18.1607 45.7655C18.1607 45.5033 18.1607 45.2543 18.1607 44.9397C18.4224 44.9266 18.6186 44.9135 18.8018 44.9004C18.8541 44.979 18.8934 45.0184 18.8934 45.0577C18.8672 47.4302 18.9195 49.8158 18.7625 52.1752C18.6448 53.9316 17.4934 54.8885 15.7402 55.0064C15.5702 55.0196 15.387 55.0327 15.2169 55.0327C12.731 55.0589 11.475 54.0365 11.3049 51.5722C11.1741 49.3832 11.2918 47.168 11.2918 44.9397Z" fill="white"/>
<path d="M77.6809 44.5868C77.6809 46.0942 77.6809 47.5098 77.6809 49.0303C78.3613 49.0303 79.0154 49.0303 79.6827 49.0303C80.2976 49.0303 80.8995 49.0434 81.5144 49.0303C81.92 49.0172 82.0901 49.1614 81.92 49.6463C80.5331 49.6463 79.1332 49.6463 77.694 49.6463C77.694 51.1537 77.694 52.5825 77.694 54.0636C79.421 54.0636 81.1088 54.0636 82.8489 54.0636C82.862 54.2996 82.8751 54.4831 82.8882 54.6928C80.8864 54.6928 78.9369 54.6928 76.9482 54.6928C76.9482 51.1144 76.9482 47.5753 76.9482 43.9707C78.8977 43.9707 80.8341 43.9707 82.7835 43.9707C82.9143 44.5212 82.9143 44.5343 82.4303 44.5474C81.0826 44.5605 79.722 44.5474 78.3744 44.5606C78.165 44.5606 77.9426 44.5737 77.6809 44.5868Z" fill="white"/>
<path d="M144.358 65.4766C146.15 65.4766 147.969 65.4766 149.853 65.4766C149.853 66.8529 149.853 68.1899 149.853 69.54C149.853 70.8376 149.853 70.8376 151.174 70.8245C151.501 70.8245 151.815 70.7983 152.182 70.7721C152.195 71.0342 152.221 71.2964 152.234 71.611C151.357 71.611 150.52 71.6634 149.709 71.5979C149.028 71.5454 148.95 70.9556 148.95 70.4182C148.937 69.2778 148.95 68.1505 148.95 67.0102C148.95 66.8004 148.95 66.5776 148.95 66.3286C147.681 66.3286 146.464 66.3286 145.143 66.3286C145.365 68.9239 144.868 71.2177 142.421 72.6989C142.225 72.4892 142.055 72.2795 141.833 72.0304C142.918 71.3095 143.834 70.4051 144.07 69.1336C144.292 67.967 144.266 66.7349 144.358 65.4766Z" fill="white"/>
<path d="M138.234 54.7159C137.92 54.7159 137.724 54.7159 137.476 54.7159C137.476 51.3865 137.476 48.0834 137.476 44.7016C138.954 44.7016 140.446 44.4919 141.898 45.0162C143.141 45.4618 143.625 46.3269 143.599 47.8605C143.573 49.1844 142.997 50.0626 141.793 50.4297C141.217 50.6001 140.603 50.6656 140.001 50.7049C139.438 50.7442 138.876 50.718 138.234 50.718C138.234 52.0681 138.234 53.3658 138.234 54.7159ZM138.248 45.4094C138.248 46.9823 138.248 48.5028 138.248 50.0757C138.915 50.0757 139.543 50.0757 140.158 50.0757C140.419 50.0757 140.681 50.0626 140.943 50.0233C142.159 49.8005 142.853 48.9354 142.853 47.677C142.84 46.4056 142.225 45.5929 140.956 45.4356C140.079 45.3176 139.19 45.4094 138.248 45.4094Z" fill="white"/>
<path d="M168.511 44.6641C170.395 44.6641 172.24 44.6641 174.137 44.6641C174.15 44.8607 174.163 45.0442 174.176 45.2932C172.528 45.2932 170.919 45.2932 169.27 45.2932C169.27 46.6695 169.27 47.9934 169.27 49.3697C170.592 49.3697 171.887 49.3697 173.221 49.3697C173.221 49.6188 173.221 49.7892 173.221 50.0251C172.083 50.0251 170.971 50.0513 169.872 50.012C169.349 49.9989 169.192 50.1693 169.205 50.6805C169.244 51.7816 169.218 52.8957 169.218 54.0754C170.879 54.0754 172.489 54.0754 174.124 54.0754C174.124 54.3245 174.124 54.4949 174.124 54.7046C172.253 54.7046 170.408 54.7046 168.511 54.7046C168.511 51.3883 168.511 48.059 168.511 44.6641Z" fill="white"/>
<path d="M108.363 54.0881C110.038 54.0881 111.608 54.0881 113.165 54.0881C113.217 54.1405 113.256 54.1929 113.309 54.2454C113.178 54.4027 113.047 54.7041 112.916 54.7173C111.176 54.7435 109.436 54.7435 107.644 54.7435C107.644 51.3748 107.644 48.0454 107.644 44.6374C108.494 44.6374 109.318 44.6374 110.129 44.6374C111.006 44.6374 111.87 44.6505 112.746 44.6374C113.191 44.6243 113.348 44.7947 113.178 45.2928C111.621 45.2928 110.038 45.2928 108.402 45.2928C108.402 46.6691 108.402 47.993 108.402 49.3693C109.685 49.3693 110.954 49.3693 112.21 49.3693C112.367 50.0116 112.367 50.0247 111.817 50.0247C110.836 50.0378 109.855 50.0116 108.873 50.0378C108.69 50.0378 108.376 50.2344 108.376 50.3393C108.35 51.5583 108.363 52.7773 108.363 54.0881Z" fill="white"/>
<path d="M151.934 54.3255C151.777 54.4565 151.62 54.7187 151.463 54.7187C149.749 54.7449 148.022 54.7318 146.242 54.7318C146.242 51.3631 146.242 48.0469 146.242 44.6257C146.949 44.6257 147.629 44.6257 148.322 44.6257C149.33 44.6257 150.324 44.6389 151.332 44.6257C151.763 44.6126 151.947 44.7699 151.79 45.2811C150.22 45.2811 148.623 45.2811 146.988 45.2811C146.988 46.6837 146.988 47.9944 146.988 49.3839C148.152 49.3839 149.278 49.397 150.416 49.3839C150.835 49.3707 151.057 49.4756 150.874 50.013C149.631 50.013 148.349 50.013 147.014 50.013C147.014 51.3893 147.014 52.7132 147.014 54.0895C148.61 54.0895 150.193 54.0895 151.763 54.0895C151.816 54.1682 151.868 54.2468 151.934 54.3255Z" fill="white"/>
<path d="M184.487 46.0526C181.883 44.6239 179.725 44.8598 178.194 46.7211C176.755 48.4645 176.755 50.9942 178.194 52.672C179.803 54.5464 181.923 54.7693 184.487 53.3012C184.657 53.8124 184.526 54.1401 184.029 54.3891C181.242 55.7786 177.998 54.612 176.755 51.7807C175.538 49.0019 176.912 45.7905 179.803 44.7288C181.242 44.1913 182.655 44.3617 184.042 45.0302C184.487 45.2531 184.657 45.5283 184.487 46.0526Z" fill="white"/>
<path d="M100.8 54.6785C99.3611 51.3622 97.9743 48.1901 96.5874 45.005C97.1762 44.769 97.464 44.9263 97.6864 45.4637C98.5892 47.6789 99.5181 49.881 100.447 52.0962C100.539 52.3191 100.643 52.5157 100.813 52.8696C101.167 52.0438 101.468 51.336 101.768 50.6282C102.501 48.898 103.234 47.1809 103.927 45.4506C104.137 44.9394 104.424 44.7952 105.013 44.9788C103.639 48.1639 102.253 51.336 100.8 54.6785Z" fill="white"/>
<path d="M242.11 73.0647C241.796 73.3793 241.56 73.6152 241.298 73.8774C239.768 72.7501 238.642 71.3214 237.74 69.7222C237.216 68.8047 236.732 67.8347 236.366 66.8385C236.144 66.2356 235.869 66.1045 235.293 66.1176C234.273 66.1569 233.252 66.1307 232.179 66.1307C232.179 65.8161 232.179 65.554 232.179 65.1738C233.187 65.1738 234.207 65.1738 235.215 65.1738C236.732 65.1738 236.719 65.1738 237.295 66.5632C238.302 69.0406 239.715 71.2427 241.861 72.9074C241.926 72.9598 242.005 72.9991 242.11 73.0647Z" fill="white"/>
<path d="M255.822 44.8733C256.476 44.6767 256.804 44.9126 257.118 45.4107C257.942 46.7346 258.831 48.0191 259.76 49.3954C260.676 48.006 261.566 46.7084 262.403 45.3714C262.691 44.9126 262.979 44.6111 263.62 44.8864C263.502 45.0699 263.385 45.2927 263.241 45.4893C262.325 46.8657 261.383 48.2289 260.493 49.6183C260.271 49.9591 260.153 50.4178 260.14 50.8242C260.101 52.0825 260.127 53.3409 260.127 54.6516C259.852 54.6516 259.63 54.6516 259.329 54.6516C259.329 53.4851 259.289 52.3185 259.342 51.1519C259.368 50.4441 259.198 49.8673 258.779 49.2775C257.785 47.8618 256.83 46.3807 255.822 44.8733Z" fill="white"/>
<path d="M157.769 44.0234C160.347 44.0234 162.859 44.0234 165.384 44.0234C165.541 44.4429 165.423 44.6264 164.991 44.6133C164.206 44.6002 163.421 44.6395 162.636 44.6002C162.113 44.574 161.969 44.7575 161.969 45.2687C161.995 48.1262 161.982 50.9836 161.982 53.8411C161.982 54.1164 161.982 54.4048 161.982 54.7062C161.72 54.7193 161.524 54.7324 161.262 54.7324C161.262 51.3769 161.262 48.0475 161.262 44.6133C160.203 44.6133 159.208 44.6264 158.214 44.6133C157.756 44.6133 157.756 44.5871 157.769 44.0234Z" fill="white"/>
<path d="M35.3533 79.0149C36.1645 79.0674 36.3084 79.4868 36.2038 80.1553C35.9683 81.6758 35.6281 81.9773 34.0711 81.9773C32.4226 81.9773 30.761 81.9904 29.1125 81.9773C27.6602 81.9642 27.3462 81.6365 27.3462 80.2078C27.3462 79.146 27.3462 78.0712 27.3462 76.957C27.6471 76.957 27.9088 76.957 28.262 76.957C28.262 78.0188 28.262 79.0805 28.262 80.1422C28.262 80.968 28.3144 81.0597 29.1386 81.086C30.7872 81.1384 32.4488 81.1515 34.0973 81.1384C35.0001 81.1253 35.2225 80.8631 35.3141 79.9587C35.3272 79.6441 35.3272 79.3426 35.3533 79.0149Z" fill="white"/>
<path d="M3.32324 72.892C3.32324 72.656 3.32324 72.4463 3.32324 72.1973C8.08566 72.1973 12.8481 72.1973 17.6236 72.1973C17.6236 72.4332 17.6236 72.6429 17.6236 72.892C12.8612 72.892 8.09874 72.892 3.32324 72.892Z" fill="white"/>
<path d="M229.143 54.705C227.272 54.705 225.441 54.705 223.543 54.705C223.543 51.4411 223.543 48.2166 223.543 44.9266C223.766 44.9135 223.975 44.9135 224.25 44.9004C224.25 47.9676 224.25 50.9824 224.25 54.102C225.087 54.102 225.859 54.102 226.631 54.102C227.325 54.102 228.018 54.1151 228.725 54.102C229.143 54.0889 229.287 54.2331 229.143 54.705Z" fill="white"/>
<path d="M116.62 44.9395C116.62 47.9804 116.62 50.9952 116.62 54.0755C118.281 54.0755 119.891 54.0755 121.539 54.0755C121.552 54.3115 121.565 54.4819 121.591 54.7047C119.681 54.7047 117.823 54.7047 115.926 54.7047C115.926 51.4409 115.926 48.2164 115.926 44.9395C116.149 44.9395 116.358 44.9395 116.62 44.9395Z" fill="white"/>
<path d="M27.0452 44.9922C27.0452 47.9808 27.0452 50.9824 27.0452 54.0628C28.6937 54.0628 30.303 54.0628 31.9515 54.0628C31.9777 54.3118 32.0038 54.4822 32.03 54.705C30.1329 54.705 28.2881 54.705 26.3779 54.705C26.3648 54.5215 26.3256 54.338 26.3256 54.1545C26.3256 51.2708 26.3256 48.4002 26.3125 45.5165C26.3125 44.9922 26.4564 44.7694 27.0452 44.9922Z" fill="white"/>
<path d="M247.828 70.1545C247.828 69.8792 247.828 69.6302 247.828 69.3418C251.753 69.3418 255.639 69.3418 259.564 69.3418C259.564 69.6171 259.564 69.8661 259.564 70.1545C255.665 70.1545 251.753 70.1545 247.828 70.1545Z" fill="white"/>
<path d="M170.997 65.4355C171.586 67.9522 172.502 70.2723 174.491 72.0812C174.399 72.2122 174.295 72.3433 174.203 72.4744C174.098 72.6186 173.994 72.7497 173.863 72.9332C172.777 72.0418 172.031 70.9015 171.468 69.6693C171.05 68.7518 170.723 67.7687 170.409 66.7987C170.278 66.4055 170.108 66.2875 169.715 66.3138C169.061 66.34 168.42 66.3269 167.727 66.3269C167.727 66.0123 167.727 65.7632 167.727 65.4618C168.799 65.4355 169.872 65.4355 170.997 65.4355Z" fill="white"/>
<path d="M225.153 73.8387C224.865 73.5765 224.63 73.3668 224.459 73.2226C225.506 71.9774 226.618 70.8108 227.534 69.5C228.437 68.2155 229.143 66.7867 229.968 65.3711C230.177 65.4366 230.465 65.5284 230.818 65.6464C229.47 68.7529 227.665 71.4924 225.153 73.8387Z" fill="white"/>
<path d="M45.9258 44.9395C46.1613 44.9395 46.3575 44.9395 46.593 44.9395C46.593 48.2033 46.593 51.4409 46.593 54.7047C46.3706 54.7047 46.1744 54.7047 45.9258 54.7047C45.9258 51.4671 45.9258 48.2426 45.9258 44.9395Z" fill="white"/>
<path d="M22.9499 54.7167C22.7013 54.7167 22.505 54.7167 22.2695 54.7167C22.2695 51.466 22.2695 48.2284 22.2695 44.9383C22.4789 44.9252 22.6882 44.9121 22.9499 44.9121C22.9499 48.189 22.9499 51.4135 22.9499 54.7167Z" fill="white"/>
<path d="M162.977 72.9609C162.728 72.6856 162.519 72.4628 162.296 72.2138C164.194 70.4442 165.306 68.2028 166.025 65.6992C166.326 65.7648 166.601 65.8172 166.928 65.8958C166.195 68.596 164.992 70.9554 162.977 72.9609Z" fill="white"/>
<path d="M67.8283 79.8935C67.2918 79.3823 67.2657 78.9498 67.5666 78.2813C68.2469 76.7608 68.7441 75.1616 69.3329 73.5625C69.4375 73.5887 69.6338 73.6411 69.8955 73.7067C69.4637 75.8826 68.8749 77.9536 67.8283 79.8935Z" fill="white"/>
<path d="M2.53857 81.7809C4.31794 81.0337 5.8618 80.3521 7.44491 79.7492C7.70658 79.6443 8.11217 79.9327 8.45234 80.0375C8.45234 80.1162 8.45234 80.1948 8.45234 80.2735C6.77765 80.9551 5.11603 81.6498 3.42826 82.2789C3.25817 82.3314 2.93108 82.0037 2.53857 81.7809Z" fill="white"/>
<path d="M11.9854 80.2079C12.1162 79.6311 12.4171 79.5656 12.9012 79.7622C14.3927 80.3914 15.9104 80.9812 17.4935 81.6104C17.2973 81.925 17.1534 82.1347 17.0225 82.3575C15.3217 81.6366 13.6731 80.9288 11.9854 80.2079Z" fill="white"/>
<path d="M102.41 73.7973C102.122 74.125 101.952 74.3085 101.795 74.4789C100.565 73.5351 99.3613 72.6307 98.1445 71.7C98.3931 71.2019 98.7202 71.1495 99.2043 71.5034C100.225 72.2637 101.272 72.9977 102.41 73.7973Z" fill="white"/>
<path d="M36.832 77.1406C37.3815 76.708 37.7086 76.8391 37.9965 77.3896C38.5329 78.412 39.1217 79.3951 39.7104 80.4437C39.3833 80.601 39.1347 80.719 38.8469 80.8501C38.1535 79.5917 37.4993 78.3727 36.832 77.1406Z" fill="white"/>
<path d="M23.7476 81.3986C23.3289 81.1627 23.0803 81.0316 22.9233 80.9399C23.5252 79.6291 24.1139 78.3708 24.7158 77.0469C24.8859 77.1124 25.1214 77.2173 25.5008 77.3746C24.912 78.7247 24.3494 80.0223 23.7476 81.3986Z" fill="white"/>
<path d="M72.6172 73.5086C73.2452 74.7932 73.8994 76.0515 74.462 77.3623C74.5536 77.5589 74.1741 77.9653 73.9386 78.3847C73.2844 76.8511 72.6957 75.5272 72.1723 74.1771C72.1069 73.9936 72.3032 73.7184 72.3686 73.4824C72.4602 73.4955 72.5387 73.4955 72.6172 73.5086Z" fill="white"/>
<path d="M98.8906 66.6426C99.0607 66.4853 99.2308 66.3149 99.5056 66.0527C100.605 66.8916 101.691 67.7305 102.829 68.6218C102.541 68.9364 102.358 69.133 102.201 69.3166C101.089 68.4252 100.016 67.5601 98.8906 66.6426Z" fill="white"/>
<path d="M73.9123 65.9355C74.1871 66.0142 74.4226 66.0928 74.7628 66.1846C74.2263 67.6133 73.703 69.0159 73.1666 70.4446C72.8918 70.366 72.6956 70.3004 72.4731 70.2349C72.9703 68.8061 73.4282 67.4167 73.9123 65.9355Z" fill="white"/>
<path d="M76.6343 66.8521C76.7913 66.6555 76.9352 66.472 77.1576 66.1836C78.2043 66.9832 79.2117 67.7696 80.2715 68.5823C80.036 68.9362 79.879 69.1591 79.7612 69.3295C78.7146 68.4906 77.694 67.691 76.6343 66.8521Z" fill="white"/>
<path d="M68.9276 70.3264C68.5351 68.9108 68.1557 67.5607 67.7632 66.1713C68.1295 65.896 68.4566 65.8698 68.6267 66.4465C68.993 67.6524 69.3463 68.8452 69.7257 70.1036C69.3725 70.2084 69.137 70.274 68.9276 70.3264Z" fill="white"/>
<path d="M79.3292 73.2345C79.1199 73.5884 78.9759 73.8243 78.8451 74.0209C77.7461 73.2607 76.6863 72.5267 75.5742 71.7533C75.6658 71.596 75.7836 71.3994 75.9929 71.0586C77.1181 71.7926 78.204 72.5004 79.3292 73.2345Z" fill="white"/>
<path d="M33.744 78.268C33.2991 78.5826 33.1029 78.7136 32.9066 78.8447C32.187 78.0714 31.4805 77.3111 30.7217 76.5115C30.9179 76.3805 31.1273 76.2494 31.2843 76.1445C32.1085 76.8392 32.8935 77.5208 33.744 78.268Z" fill="white"/>
</g>
<defs>
<clipPath id="clip0_255_70792">
<rect width="264" height="82.5" fill="white"/>
</clipPath>
</defs>
</svg>
