<svg width="458" height="80" viewBox="0 0 458 80" fill="none" xmlns="http://www.w3.org/2000/svg">
<path d="M27.9641 22.5205C36.5135 20.2146 45.2127 19.7959 54.0012 20.335C59.5911 20.6644 65.0913 21.2634 70.3225 23.3896C74.5972 25.1266 78.1248 27.7319 79.1711 32.5234C79.5896 34.5299 79.4705 36.6566 79.5901 38.8428H54.3899C54.0312 36.5967 53.134 34.3802 50.8323 33.5117C48.68 32.7331 46.3184 32.1042 44.0764 32.1641C34.5105 32.4635 27.4259 38.6932 25.3333 48.5762C24.7653 51.3315 24.3763 54.2369 24.6155 56.9922C25.1835 63.5807 28.6214 67.0843 35.2278 67.833C39.652 68.3421 44.0761 68.0127 48.3508 66.5752C49.2775 66.2757 49.6965 65.7969 49.8459 64.8086C50.2645 62.4427 50.8327 60.0768 51.4006 57.4414H37.5598C38.3968 53.3983 39.2332 49.4747 40.0403 45.5215H77.8264C76.6905 50.8524 75.6141 56.0939 74.5081 61.335C73.6113 65.5276 72.7142 69.6902 71.8772 73.8828C71.6381 75.0508 71.16 75.5602 69.9045 75.7998C57.5884 78.3155 45.1821 79.8724 32.5969 79.9922C25.6617 80.0521 18.7861 79.543 12.2395 76.9375C3.21182 73.3436 -0.585143 66.3058 0.0725098 56.8721C0.610594 49.2652 2.7036 42.1974 7.24731 35.998C12.4189 28.9002 19.6537 24.7667 27.9641 22.5205ZM114.506 20.6953C121.202 19.9765 127.899 19.8274 134.595 20.666C138.75 21.2051 142.816 22.1334 146.613 23.9902C153.846 27.5242 157.733 33.3939 157.882 41.4199C158.061 50.7339 155.371 59.2397 149.303 66.3975C144.281 72.3273 137.555 75.6516 130.231 77.748C124.491 79.4252 118.632 80.054 112.683 79.9941C105.598 79.9642 98.5729 79.3656 91.9963 76.3408C84.4034 72.8368 80.278 66.8466 80.3079 58.4609C80.3378 45.3435 85.2105 34.5318 96.2112 26.9248C101.712 23.1513 107.96 21.4141 114.506 20.6953ZM278.234 20.6953C284.93 19.9766 291.626 19.8268 298.323 20.6953C302.777 21.2644 307.111 22.3132 311.116 24.4395C317.992 28.0932 321.46 33.963 321.579 41.6299C321.699 50.2251 319.308 58.1616 314.076 65.0498C309.204 71.4887 302.418 75.1126 294.855 77.4785C288.846 79.3653 282.628 80.054 277.905 79.9941C269.624 79.9941 263.018 79.4248 256.74 76.8193C248.161 73.2555 243.767 66.847 243.976 57.5332C244.275 45.0746 248.998 34.7118 259.311 27.3145C264.961 23.2714 271.418 21.444 278.234 20.6953ZM165.534 32.584C171.991 35.459 178.598 37.316 185.802 36.7471C185.025 40.4008 184.308 43.845 183.59 47.2891L177.133 77.2979C176.954 78.0764 176.804 78.5555 175.878 78.5557C169.421 78.5257 162.934 78.5254 156.477 78.5254C156.327 78.5254 156.178 78.4658 155.73 78.376C158.988 63.1022 162.246 47.9177 165.534 32.584ZM223.408 0C221.585 8.44554 219.821 16.7117 217.968 25.2471C224.784 23.9593 230.494 20.8738 235.665 16.6211C240.807 12.3685 244.992 7.27733 248.459 1.4375C250.612 2.51563 252.675 3.56347 254.857 4.6416C253.691 6.91766 252.525 9.10415 251.448 11.3203C247.204 20.1852 244.753 29.5599 242.75 39.1436C240.06 52.0813 237.219 65.019 234.409 77.9268C234.38 78.1064 234.29 78.2861 234.23 78.5557H212.946C216.712 61.425 220.389 44.3537 224.036 27.3428C221.914 26.8636 219.971 26.4147 217.878 25.9355C217.25 28.7507 216.592 31.6861 215.935 34.6211C212.826 48.8466 209.747 63.1026 206.638 77.3281C206.489 77.9868 206.369 78.5254 205.443 78.5254C198.179 78.4954 190.914 78.4961 183.62 78.4961C183.471 78.4961 183.351 78.4056 183.082 78.3457C186.371 63.4913 189.599 48.6369 192.917 33.4531C184.009 35.819 175.669 34.6207 167.508 31.1768C163.592 29.5296 158.002 25.906 156.327 23.8994C158.689 24.6182 161.081 25.5465 163.592 26.0557C171.215 27.6428 178.628 26.3552 185.863 23.8096C196.056 20.2457 205.143 14.6153 213.633 8.05664C216.891 5.54097 220.001 2.81515 223.408 0ZM332.669 21.5928C345.762 21.5928 358.856 21.5632 371.949 21.623C376.463 21.653 381.007 21.7728 385.402 23.1504C386.986 23.6295 388.6 24.3481 389.946 25.2764C393.802 27.9417 394.191 31.9252 393.503 36.0879C392.188 44.1441 387.046 48.5172 379.483 50.5537C379.005 50.6735 378.556 50.8536 378.078 51.0332C378.108 51.1529 378.108 51.3023 378.138 51.4219C379.333 51.6315 380.529 51.7514 381.695 52.0508C385.79 53.069 387.524 55.4357 387.345 59.5986C387.076 65.4684 386.777 71.3382 386.478 77.208C386.508 77.5972 386.418 77.9865 386.328 78.4355H362.533C362.623 76.7286 362.683 75.1113 362.742 73.4941C362.892 69.9603 363.131 66.4264 363.221 62.8926C363.281 59.6581 362.055 58.2503 358.826 58.1006C355.06 57.9508 351.293 58.0703 347.347 58.0703C346.57 61.694 345.763 65.4381 344.956 69.1816C344.358 71.9369 343.79 74.7223 343.132 77.4775C343.042 77.8967 342.415 78.4655 342.027 78.4658C334.553 78.5257 327.079 78.4961 319.606 78.4961C319.456 78.4959 319.337 78.4062 319.038 78.3164C323.014 59.4487 327.019 40.6103 331.055 21.5928H332.669ZM404.324 21.5928C421.842 21.6227 439.39 21.6221 456.907 21.6221C457.117 21.6221 457.296 21.6527 457.624 21.6826C456.817 25.6058 455.981 29.4694 455.144 33.5723H453.44C444.083 33.5723 434.726 33.6019 425.369 33.542C424.234 33.542 423.725 33.8122 423.516 35.04C423.008 37.9748 422.32 40.8797 421.662 43.9941H450.989C450.181 47.8874 449.434 51.6012 448.597 55.2549C448.507 55.5843 447.64 55.9736 447.132 55.9736C438.433 56.0036 429.704 56.0039 420.975 56.0039H419.121C418.374 59.5077 417.627 62.8918 416.85 66.4854H448.448C447.581 70.5583 446.774 74.4521 445.937 78.4053H391.201C391.65 76.1294 392.098 73.9133 392.546 71.6973C396.014 55.4051 399.481 39.1125 402.919 22.8203C403.099 21.9219 403.368 21.5928 404.324 21.5928ZM289.235 33.3945C284.123 32.4661 279.489 33.664 275.752 37.3477C269.983 43.0379 268.129 50.3153 268.667 58.1318C269.026 63.4626 272.434 66.6074 277.606 67.0566C282.897 67.5358 287.441 65.7989 290.939 61.7559C295.154 56.7844 296.678 50.8241 297.036 44.8643C296.977 43.7263 296.977 42.9775 296.917 42.2588C296.529 37.5869 293.689 34.1733 289.235 33.3945ZM125.327 33.3037C119.528 32.4054 114.566 34.1124 110.74 38.6045C106.554 43.5161 105.21 49.5063 104.791 55.7656V56.9639C104.971 61.995 107.721 65.7688 112.055 66.6973C117.376 67.8353 122.248 66.7263 126.105 62.833C131.964 56.9032 133.937 49.4459 133.04 41.2998C132.562 36.8677 129.512 33.9626 125.327 33.3037ZM352.639 33.0332C351.623 37.7651 350.695 42.1679 349.679 47.0195C354.342 46.7799 358.827 46.8395 363.221 46.2705C366.449 45.8212 368.482 43.5158 369.259 40.2217C370.156 36.508 368.87 34.082 365.104 33.6328C361.038 33.1237 356.884 33.2129 352.639 33.0332Z" fill="white"/>
</svg>
