<svg width="20" height="20" viewBox="0 0 20 20" fill="none" xmlns="http://www.w3.org/2000/svg">
<g clip-path="url(#clip0_265_6347)">
<path d="M13.7216 6.25033C13.0358 3.53116 11.6266 1.66699 9.99996 1.66699C7.69913 1.66699 5.83329 5.39783 5.83329 10.0003C5.83329 14.6028 7.69913 18.3337 9.99996 18.3337C10.285 18.3337 10.5641 18.2762 10.8333 18.167M12.6616 11.4228L15.84 12.9728L14.29 16.1512M15.8333 12.9753C14.33 13.7128 12.2716 14.167 9.99996 14.167C5.39746 14.167 1.66663 12.3012 1.66663 10.0003C1.66663 7.69949 5.39746 5.83366 9.99996 5.83366C14.0316 5.83366 17.3941 7.26533 18.1666 9.16699" stroke="#71717A" stroke-width="1.66667" stroke-linecap="round" stroke-linejoin="round"/>
</g>
<defs>
<clipPath id="clip0_265_6347">
<rect width="20" height="20" fill="white"/>
</clipPath>
</defs>
</svg>
