<svg width="89" height="36" viewBox="0 0 89 36" fill="none" xmlns="http://www.w3.org/2000/svg">
<path d="M88.4217 5.34451C86.3981 5.50651 84.3926 5.48851 82.4594 5.84851C78.3762 6.5865 75.106 8.8725 72.6488 12.0945C70.1556 15.3705 68.0236 18.9345 65.6749 22.3365C63.7958 25.0364 62.0252 27.8444 59.8933 30.3284C53.2264 38.0324 41.844 37.8704 35.123 29.9504C32.3225 26.6564 30.1725 22.9665 27.9141 19.3305C25.9809 16.2165 24.0115 13.1385 21.3918 10.5465C17.6879 6.8565 13.2614 5.11051 8.02191 5.52451C7.6967 5.54251 7.37148 5.52451 6.95593 5.52451C7.60636 3.99451 8.6362 2.82452 9.93705 1.88852C13.4963 -0.649472 18.3022 -0.613473 22.1325 1.92452C25.222 3.97651 27.4624 6.8205 29.504 9.84449C32.0515 13.6065 34.4364 17.5125 37.0742 21.2205C38.3932 23.0745 39.965 24.8384 41.7175 26.3144C45.6743 29.6084 50.3718 29.3744 54.2382 25.9544C57.0748 23.4705 59.0803 20.3385 61.1399 17.2425C63.4706 13.7325 65.7652 10.1685 68.2585 6.7665C70.3182 3.95851 72.8657 1.63652 76.2985 0.502525C80.8334 -0.973471 85.9464 0.916523 88.2229 4.96651C88.3313 5.11051 88.3855 5.27251 88.4217 5.34451Z" fill="white"/>
<path d="M47.698 0C53.1363 0 57.4905 4.33799 57.4724 9.75597C57.4544 15.12 53.1001 19.4219 47.698 19.4219C42.332 19.4219 37.9778 15.066 37.9778 9.70197C37.9597 4.31999 42.3139 0 47.698 0Z" fill="white"/>
<path d="M79.2436 35.962C73.8415 35.962 69.5234 31.678 69.4872 26.2781C69.4511 20.9321 73.8234 16.5581 79.1894 16.5401C84.5915 16.5221 89 20.8961 89 26.2781C89.018 31.624 84.6277 35.962 79.2436 35.962ZM82.9293 26.2601C82.9293 24.2261 81.3214 22.6241 79.2797 22.6241C77.1659 22.6241 75.5217 24.2081 75.5037 26.2601C75.4856 28.2761 77.1839 29.9861 79.2075 29.9861C81.2852 29.9681 82.9474 28.3121 82.9293 26.2601Z" fill="white"/>
<path d="M25.9086 26.2248C25.9267 31.6428 21.6447 35.9628 16.2426 35.9628C10.8766 35.9808 6.59462 31.7148 6.45008 26.4948C6.32361 21.2928 10.5152 16.5948 16.1342 16.5588C21.5363 16.5228 25.8906 20.8428 25.9086 26.2248ZM16.2065 22.6248C14.0926 22.6248 12.4846 24.2088 12.4846 26.2788C12.4846 28.3128 14.1648 29.9868 16.2065 29.9688C18.2481 29.9508 19.9283 28.2588 19.9103 26.2248C19.8741 24.2268 18.23 22.6248 16.2065 22.6248Z" fill="white"/>
</svg>
