<svg width="153" height="48" viewBox="0 0 153 48" fill="none" xmlns="http://www.w3.org/2000/svg">
<g clip-path="url(#clip0_403_3849)">
<path d="M49.5617 8.51723C47.302 9.11962 45.1864 8.81461 43.1163 7.93773C42.1229 7.51835 40.7049 6.59571 40.2803 6.08483C40.8793 6.26783 41.486 6.50421 42.1229 6.63384C44.0566 7.03797 45.9371 6.71009 47.7722 6.06195C50.3579 5.15457 52.6631 3.72105 54.8167 2.05115C55.6432 1.41064 56.4318 0.716759 57.2963 0C56.8337 2.15028 56.3863 4.2548 55.9162 6.42796C57.6451 6.10008 59.0934 5.31469 60.4053 4.23193C61.7095 3.14917 62.7711 1.8529 63.6507 0.366005C64.1967 0.640508 64.7199 0.907387 65.2735 1.18189C64.9777 1.7614 64.682 2.31803 64.409 2.88229C63.3323 5.13932 62.7105 7.52597 62.2024 9.966C61.5199 13.26 60.7996 16.5541 60.0868 19.8405C60.0792 19.8863 60.0564 19.932 60.0413 20.0006C58.2593 20.0006 56.4773 20.0006 54.6423 20.0006C55.5977 15.6391 56.5304 11.2928 57.4555 6.96171C56.9171 6.83971 56.4242 6.72534 55.8934 6.60334C55.7342 7.32009 55.5674 8.06735 55.4006 8.81461C54.6119 12.4365 53.8309 16.0661 53.0423 19.688C53.0044 19.8558 52.974 19.993 52.739 19.993C50.8963 19.9854 49.0537 19.9854 47.2035 19.9854C47.1655 19.9854 47.1352 19.9625 47.067 19.9473C47.9011 16.1652 48.72 12.3832 49.5617 8.51723Z" fill="#0D2240"/>
<path d="M13.6643 14.625C12.4662 14.625 11.3364 14.625 10.1534 14.625C10.3658 13.5956 10.5781 12.5967 10.7828 11.5902C13.9828 11.5902 17.16 11.5902 20.3676 11.5902C20.0794 12.9475 19.8065 14.2819 19.5259 15.6163C19.2984 16.6838 19.0709 17.7437 18.8586 18.8112C18.7979 19.1086 18.6766 19.2382 18.3581 19.2992C15.234 19.9397 12.0871 20.3362 8.89468 20.3667C7.13545 20.382 5.39138 20.2523 3.73073 19.589C1.4407 18.6739 0.47767 16.882 0.644494 14.4801C0.780986 12.5434 1.31179 10.7438 2.46439 9.16545C3.77623 7.3583 5.61129 6.30603 7.71933 5.73415C9.88804 5.14702 12.0947 5.04027 14.324 5.17752C15.742 5.26139 17.1373 5.4139 18.4643 5.95528C19.5486 6.39753 20.4434 7.06092 20.7088 8.28093C20.815 8.79182 20.7847 9.3332 20.815 9.88983C18.6387 9.88983 16.5534 9.88983 14.4226 9.88983C14.3316 9.31795 14.1041 8.75369 13.5202 8.53256C12.9743 8.33431 12.3752 8.17418 11.8065 8.18943C9.37998 8.26568 7.58284 9.8517 7.05204 12.368C6.90796 13.0695 6.80938 13.8091 6.87005 14.5106C7.01412 16.1882 7.88615 17.0803 9.56197 17.2709C10.6842 17.4006 11.8065 17.3167 12.8909 16.9507C13.1259 16.8744 13.2321 16.7524 13.27 16.5008C13.3762 15.8984 13.5202 15.296 13.6643 14.625Z" fill="#0D2240"/>
<path d="M71.1199 20.3668C69.0194 20.3668 67.3436 20.2219 65.7512 19.5585C63.5749 18.6511 62.4602 17.0193 62.5133 14.6479C62.5891 11.4759 63.7872 8.83762 66.4033 6.95422C67.8365 5.92483 69.4744 5.4597 71.2033 5.26907C72.9018 5.08607 74.6004 5.04794 76.299 5.26907C77.4288 5.41395 78.5283 5.68083 79.5445 6.22221C81.2885 7.15247 82.1681 8.64699 82.1985 10.599C82.2288 12.7874 81.6222 14.8081 80.2952 16.5618C79.0592 18.2012 77.3378 19.1239 75.4194 19.7263C73.8952 20.2066 72.318 20.382 71.1199 20.3668ZM75.9729 11.4225C75.9578 11.1328 75.9577 10.9421 75.9426 10.7591C75.844 9.56963 75.1236 8.70037 73.9938 8.50211C72.6971 8.26574 71.5218 8.57074 70.5739 9.50863C69.1104 10.9574 68.6403 12.8103 68.7768 14.8004C68.8677 16.1577 69.7322 16.9583 71.044 17.0727C72.3862 17.1947 73.5388 16.7525 74.426 15.7231C75.4952 14.4573 75.8819 12.9399 75.9729 11.4225Z" fill="#0D2240"/>
<path d="M29.2093 20.3659C27.4121 20.3583 25.6301 20.2058 23.9619 19.4357C22.0358 18.5435 20.9894 17.0185 20.997 14.8835C21.0046 11.5437 22.2406 8.79102 25.0311 6.85425C26.4263 5.89349 28.0112 5.45123 29.6718 5.26823C31.3704 5.08523 33.069 5.0471 34.7675 5.2606C35.8215 5.39786 36.8528 5.63423 37.8158 6.10699C39.6509 7.00675 40.6367 8.50127 40.6746 10.5448C40.7201 12.9162 40.0376 15.0817 38.4983 16.9041C37.2244 18.4139 35.5182 19.2603 33.6604 19.794C32.2045 20.221 30.7183 20.3812 29.2093 20.3659ZM27.2074 14.1972C27.2074 14.2963 27.2074 14.4031 27.2074 14.5022C27.2529 15.7832 27.9505 16.744 29.05 16.9804C30.3998 17.2701 31.6358 16.988 32.614 15.9967C34.1002 14.487 34.6007 12.5883 34.3732 10.5143C34.2519 9.38578 33.4784 8.64615 32.4168 8.47839C30.9457 8.24964 29.687 8.68427 28.7164 9.82804C27.6548 11.0786 27.3135 12.6036 27.2074 14.1972Z" fill="#0D2240"/>
<path d="M98.623 19.9695C96.6212 19.9695 94.6269 19.9695 92.5871 19.9695C92.6098 19.5348 92.625 19.1231 92.6401 18.7113C92.6781 17.8116 92.7387 16.9118 92.7615 16.012C92.7766 15.1885 92.4657 14.8301 91.6468 14.792C90.6913 14.7539 89.7359 14.7844 88.7349 14.7844C88.5378 15.707 88.3331 16.6602 88.1283 17.6133C87.9767 18.3148 87.8326 19.0239 87.6658 19.7255C87.643 19.8322 87.4838 19.9771 87.3852 19.9771C85.4895 19.9923 83.5938 19.9847 81.698 19.9847C81.6601 19.9847 81.6298 19.9618 81.554 19.939C82.5625 15.1351 83.5786 10.339 84.6023 5.49702C84.7388 5.49702 84.8753 5.49702 85.0118 5.49702C88.3331 5.49702 91.6544 5.4894 94.9757 5.50465C96.1207 5.51227 97.2733 5.54277 98.388 5.89353C98.7899 6.01553 99.1993 6.19853 99.5406 6.43491C100.519 7.11354 100.617 8.12768 100.443 9.18757C100.109 11.2387 98.805 12.352 96.8866 12.8705C96.7652 12.901 96.6515 12.9467 96.5302 12.9925C96.5377 13.023 96.5377 13.0611 96.5453 13.0916C96.8486 13.145 97.152 13.1755 97.4477 13.2517C98.4865 13.511 98.9264 14.1134 98.8809 15.1733C98.8126 16.6678 98.7368 18.1623 98.661 19.6568C98.6685 19.756 98.6458 19.8551 98.623 19.9695ZM90.0771 8.40981C89.8193 9.61458 89.5842 10.7355 89.3264 11.9707C90.5093 11.9097 91.6468 11.925 92.7615 11.7801C93.5804 11.6657 94.0961 11.0786 94.2932 10.2398C94.5207 9.29432 94.1946 8.67669 93.2392 8.56231C92.2079 8.43269 91.1539 8.45556 90.0771 8.40981Z" fill="#0D2240"/>
<path d="M106.942 14.2593C106.752 15.1514 106.562 16.0131 106.365 16.9281C109.05 16.9281 111.688 16.9281 114.38 16.9281C114.16 17.9651 113.956 18.9563 113.743 19.9629C109.133 19.9629 104.53 19.9629 99.8591 19.9629C99.9729 19.3834 100.087 18.8191 100.2 18.2548C101.08 14.1068 101.96 9.95873 102.832 5.81068C102.877 5.58192 102.945 5.49805 103.188 5.49805C107.632 5.50567 112.083 5.50567 116.526 5.50567C116.579 5.50567 116.625 5.5133 116.708 5.52092C116.504 6.51981 116.291 7.50345 116.079 8.54809C115.935 8.54809 115.791 8.54809 115.647 8.54809C113.273 8.54809 110.9 8.55571 108.526 8.54046C108.238 8.54046 108.109 8.60909 108.056 8.92172C107.927 9.66898 107.753 10.4086 107.586 11.2016C110.081 11.2016 112.53 11.2016 115.025 11.2016C114.82 12.1929 114.631 13.1384 114.418 14.0687C114.396 14.1525 114.176 14.2517 114.047 14.2517C111.84 14.2593 109.626 14.2593 107.412 14.2593C107.268 14.2593 107.131 14.2593 106.942 14.2593Z" fill="#0D2240"/>
<path d="M152.757 7.38095C151.908 7.44958 151.066 7.44195 150.255 7.59446C148.541 7.90708 147.169 8.87547 146.137 10.2404C145.091 11.6281 144.196 13.1379 143.21 14.579C142.422 15.7228 141.679 16.9123 140.784 17.9646C137.986 21.2281 133.209 21.1595 130.388 17.8045C129.212 16.4091 128.31 14.8459 127.362 13.3057C126.551 11.9865 125.724 10.6826 124.625 9.58461C123.07 8.02146 121.212 7.28183 119.013 7.4572C118.877 7.46483 118.74 7.4572 118.566 7.4572C118.839 6.80907 119.271 6.31344 119.817 5.91693C121.311 4.84179 123.328 4.85704 124.936 5.93218C126.232 6.80144 127.173 8.00621 128.029 9.28723C129.099 10.8809 130.1 12.5355 131.207 14.1063C131.76 14.8917 132.42 15.6389 133.156 16.2642C134.816 17.6596 136.788 17.5605 138.41 16.1117C139.601 15.0594 140.443 13.7327 141.307 12.4211C142.285 10.9342 143.248 9.42448 144.295 7.98334C145.159 6.79382 146.228 5.81018 147.669 5.3298C149.572 4.70454 151.718 5.50518 152.674 7.22083C152.719 7.28183 152.742 7.35045 152.757 7.38095Z" fill="#D70036"/>
<path d="M40.1287 19.9547C40.9552 16.0659 41.7817 12.1999 42.6158 8.2959C44.2538 9.02791 45.9296 9.50066 47.757 9.35579C47.5599 10.286 47.3779 11.1629 47.1959 12.0398C46.6499 14.5866 46.104 17.1334 45.558 19.6802C45.5125 19.8784 45.4746 20.0004 45.2395 20.0004C43.6016 19.9928 41.9561 19.9928 40.3182 19.9928C40.2803 19.9928 40.2424 19.9776 40.1287 19.9547Z" fill="#0D2240"/>
<path d="M135.665 5.11719C137.948 5.11719 139.775 6.95484 139.768 9.24999C139.76 11.5223 137.933 13.3447 135.665 13.3447C133.413 13.3447 131.586 11.4994 131.586 9.22712C131.578 6.94721 133.406 5.11719 135.665 5.11719Z" fill="#0D2240"/>
<path d="M148.905 20.3506C146.638 20.3506 144.826 18.5358 144.81 16.2482C144.795 13.9836 146.63 12.1307 148.882 12.1231C151.15 12.1154 153 13.9683 153 16.2482C153.008 18.5129 151.165 20.3506 148.905 20.3506ZM150.452 16.2406C150.452 15.379 149.777 14.7004 148.92 14.7004C148.033 14.7004 147.343 15.3714 147.336 16.2406C147.328 17.0946 148.041 17.819 148.89 17.819C149.762 17.8114 150.46 17.1099 150.452 16.2406Z" fill="#0D2240"/>
<path d="M126.52 16.2266C126.528 18.5218 124.731 20.3518 122.464 20.3518C120.212 20.3594 118.414 18.5523 118.354 16.341C118.301 14.1373 120.06 12.1472 122.418 12.1319C124.685 12.1167 126.513 13.9467 126.52 16.2266ZM122.448 14.7016C121.561 14.7016 120.886 15.3726 120.886 16.2495C120.886 17.1111 121.592 17.8203 122.448 17.8126C123.305 17.805 124.011 17.0882 124.003 16.2266C123.988 15.3802 123.298 14.7016 122.448 14.7016Z" fill="#0D2240"/>
<path d="M105.812 47.9386C105.683 47.7861 105.569 47.6565 105.448 47.5116C106.289 46.6042 106.464 45.4909 106.479 44.3319C106.487 43.6304 106.479 42.9213 106.479 42.2122C105.789 42.8832 105.129 43.5313 104.447 44.2023C104.288 44.0117 104.181 43.882 104.06 43.7372C105.486 42.6849 106.517 41.3429 107.29 39.7035C106.252 39.7035 105.281 39.7035 104.288 39.7035C104.288 39.5129 104.288 39.368 104.288 39.1697C104.788 39.1697 105.281 39.1697 105.766 39.1697C106.183 39.1697 106.608 39.1316 107.017 39.1774C107.457 39.2307 107.654 39.0401 107.761 38.6436C107.844 38.3157 107.973 37.9955 108.087 37.6523C108.261 37.6905 108.413 37.721 108.617 37.7667C108.458 38.2319 108.314 38.6741 108.147 39.1621C110.126 39.1621 112.068 39.1621 114.032 39.1621C114.032 39.3451 114.032 39.49 114.032 39.6959C113.91 39.6959 113.774 39.6959 113.645 39.6959C111.84 39.6959 110.035 39.7035 108.223 39.6882C107.973 39.6882 107.852 39.7645 107.745 39.9932C107.563 40.405 107.328 40.7939 107.101 41.2361C108.959 41.2361 110.771 41.2361 112.629 41.2361C112.644 41.381 112.659 41.503 112.659 41.625C112.659 43.455 112.659 45.2774 112.659 47.1075C112.659 47.6336 112.53 47.8013 112.007 47.8395C111.514 47.8776 111.021 47.87 110.528 47.8776C110.164 47.8852 110.255 47.5573 110.149 47.3743C110.642 47.3743 111.105 47.382 111.567 47.3743C112.121 47.3667 112.121 47.3667 112.121 46.8253C112.121 46.4441 112.121 46.0704 112.121 45.6663C111.984 45.6587 111.87 45.6434 111.764 45.6434C110.27 45.6434 108.784 45.6511 107.29 45.6358C107.01 45.6358 106.911 45.7197 106.858 46.0018C106.699 46.7796 106.335 47.443 105.812 47.9386ZM112.09 43.6914C110.377 43.6914 108.708 43.6914 107.033 43.6914C107.033 44.1794 107.033 44.6293 107.033 45.0792C108.731 45.0792 110.399 45.0792 112.09 45.0792C112.09 44.6141 112.09 44.1642 112.09 43.6914ZM112.083 43.15C112.083 42.6697 112.083 42.2198 112.083 41.7775C110.384 41.7775 108.716 41.7775 107.04 41.7775C107.04 42.2503 107.04 42.6849 107.04 43.15C108.724 43.15 110.384 43.15 112.083 43.15Z" fill="#0D2240"/>
<path d="M126.331 38.1934C126.331 39.7946 126.331 41.3578 126.331 42.9819C125.52 42.9819 124.716 42.9819 123.806 42.9819C124.079 43.6758 124.321 44.2934 124.602 44.9949C125.33 44.4917 125.997 44.0266 126.695 43.5462C126.794 43.6377 126.907 43.7444 127.089 43.9122C126.354 44.4154 125.641 44.9034 124.913 45.3915C125.504 46.2607 126.263 46.9241 127.233 47.3206C126.938 47.8696 126.938 47.8696 126.422 47.5722C124.974 46.7335 124.155 45.422 123.609 43.8893C123.503 43.5996 123.457 43.1268 123.267 43.0582C122.903 42.9209 122.456 43.02 122.031 43.02C122.031 44.3773 122.031 45.7041 122.031 47.0613C122.775 46.8783 123.487 46.6953 124.261 46.4971C124.268 46.6877 124.276 46.825 124.284 46.9851C123.321 47.2749 122.365 47.557 121.387 47.8467C121.319 47.7247 121.235 47.5875 121.159 47.4502C121.197 47.4579 121.235 47.4579 121.266 47.4655C121.334 47.1452 121.47 46.8326 121.47 46.5123C121.485 43.8969 121.478 41.2892 121.478 38.6737C121.478 38.5212 121.478 38.3687 121.478 38.1934C123.108 38.1934 124.701 38.1934 126.331 38.1934ZM125.815 40.8088C124.534 40.8088 123.29 40.8088 122.047 40.8088C122.047 41.3883 122.047 41.9373 122.047 42.4787C123.321 42.4787 124.564 42.4787 125.815 42.4787C125.815 41.9144 125.815 41.3806 125.815 40.8088ZM122.031 40.2826C123.321 40.2826 124.564 40.2826 125.793 40.2826C125.793 39.7336 125.793 39.2075 125.793 38.6814C124.519 38.6814 123.275 38.6814 122.031 38.6814C122.031 39.2304 122.031 39.7489 122.031 40.2826Z" fill="#0D2240"/>
<path d="M72.1587 45.8188C73.0535 46.6042 74.0545 47.1075 75.154 47.4353C74.9568 47.9462 74.9341 47.9539 74.4639 47.7937C73.4478 47.443 72.5455 46.9016 71.7341 46.1696C70.718 46.955 69.6109 47.5421 68.3673 47.9157C68.3142 47.8318 68.2611 47.7556 68.2081 47.6717C68.1626 47.5955 68.1171 47.5192 68.0564 47.4277C69.2469 47.077 70.3313 46.5737 71.2943 45.8036C70.9834 45.3842 70.6422 45.0106 70.3919 44.5836C70.0583 44.0193 69.7701 43.4322 69.4896 42.8374C69.3834 42.601 69.2924 42.4028 68.9663 42.4562C68.9663 42.2884 68.9663 42.1435 68.9663 41.9376C69.7929 41.9376 70.6194 41.9376 71.4611 41.9376C71.4611 41.2819 71.4611 40.6795 71.4611 40.0314C70.5436 40.0314 69.6412 40.0314 68.7085 40.0314C68.7085 39.856 68.7085 39.7264 68.7085 39.5357C69.6109 39.5357 70.5208 39.5357 71.4763 39.5357C71.4763 38.88 71.4763 38.2776 71.4763 37.6523C71.6659 37.6523 71.8099 37.6523 72.0147 37.6523C72.0147 38.148 72.0374 38.636 72.0071 39.124C71.9919 39.4519 72.1132 39.5281 72.4166 39.5281C73.2128 39.5129 74.0014 39.5205 74.8203 39.5205C74.8203 39.6882 74.8203 39.8255 74.8203 40.0237C74.5625 40.0237 74.3047 40.0237 74.0469 40.0237C73.4782 40.0237 72.9094 40.0314 72.3407 40.0161C72.1057 40.0085 71.9995 40.0771 72.0071 40.3364C72.0222 40.8549 72.0147 41.3734 72.0147 41.8919C72.8639 42.0139 73.6829 41.808 74.5322 42.0291C74.0848 43.5465 73.2658 44.7513 72.1587 45.8188ZM69.899 42.4714C70.3313 43.6304 70.9227 44.6064 71.772 45.4299C72.682 44.5759 73.3872 43.6457 73.8194 42.4714C72.4924 42.4714 71.2412 42.4714 69.899 42.4714Z" fill="#0D2240"/>
<path d="M78.8393 38.0566C79.8251 38.0566 80.7578 38.0566 81.736 38.0566C81.7436 38.1863 81.7587 38.3235 81.7587 38.4531C81.7587 41.3049 81.7587 44.1643 81.7587 47.0161C81.7587 47.588 81.6374 47.7176 81.0687 47.7863C80.8564 47.8091 80.6365 47.7939 80.4317 47.8244C80.0374 47.8854 79.9237 47.6719 79.9085 47.3135C80.2573 47.3135 80.5986 47.3059 80.9322 47.3135C81.1445 47.3211 81.2583 47.2525 81.2583 47.0085C81.2507 45.8647 81.2583 44.7286 81.2583 43.501C80.682 43.8365 80.1587 44.1491 79.6204 44.4693C79.5369 44.3473 79.4535 44.2253 79.3398 44.0652C79.2412 44.7439 79.1806 45.3996 79.0365 46.0249C78.8924 46.6578 78.6649 47.2754 78.4602 47.9464C78.2479 47.8168 78.1114 47.7329 77.9673 47.6414C78.7862 45.8342 78.8545 43.928 78.8545 42.0064C78.8393 40.7102 78.8393 39.4063 78.8393 38.0566ZM79.355 43.9813C79.954 43.6687 80.5455 43.3637 81.1294 43.0511C81.19 43.0206 81.2431 42.9138 81.2431 42.8452C81.2583 42.4944 81.2507 42.1513 81.2507 41.7396C81.0839 41.8463 80.9701 41.9226 80.864 41.9912C80.3862 41.4803 79.9237 40.9847 79.4384 40.4738C79.5445 40.3975 79.6507 40.3137 79.8478 40.1688C80.2952 40.6568 80.7426 41.1448 81.2203 41.6633C81.2203 40.5958 81.2203 39.5893 81.2203 38.5828C80.591 38.5828 79.9919 38.5828 79.355 38.5828C79.355 40.3823 79.355 42.1513 79.355 43.9813Z" fill="#0D2240"/>
<path d="M34.4111 41.503C33.4253 43.2492 32.3182 44.7894 30.8017 46.0247C30.7258 45.9408 30.6576 45.8646 30.5893 45.7959C30.5287 45.7273 30.4756 45.6663 30.4073 45.5824C32.0756 44.2786 33.2813 42.6163 34.2367 40.6719C33.0917 40.6719 31.9998 40.6719 30.8775 40.6719C30.8699 40.4813 30.8623 40.3364 30.8547 40.1458C31.0064 40.1381 31.1353 40.1229 31.2718 40.1229C32.1817 40.1229 33.0917 40.1076 34.0016 40.1305C34.358 40.1381 34.4869 40.0466 34.4718 39.673C34.4414 39.0096 34.4642 38.3386 34.4642 37.6523C34.6689 37.6523 34.8206 37.6523 35.0102 37.6523C35.0102 38.4606 35.0102 39.2536 35.0102 40.1076C35.4196 40.1076 35.8064 40.1076 36.2158 40.1076C36.2158 40.3135 36.2158 40.466 36.2158 40.6566C35.8291 40.6566 35.4576 40.6566 35.0177 40.6566C35.0177 40.8244 35.0177 40.9616 35.0177 41.0913C35.0177 43.0204 35.0177 44.9496 35.0177 46.8711C35.0177 47.6717 34.8888 47.8166 34.1002 47.9005C34.0016 47.9081 33.8955 47.9157 33.7969 47.9157C33.4178 47.9157 33.0386 47.9157 32.6367 47.9157C32.5761 47.7403 32.5078 47.565 32.4396 47.3591C32.9931 47.3591 33.5239 47.3515 34.0547 47.3591C34.3353 47.3591 34.4718 47.2676 34.4718 46.9626C34.4642 45.2088 34.4642 43.4627 34.4642 41.7089C34.4566 41.6784 34.4414 41.6403 34.4111 41.503Z" fill="#0D2240"/>
<path d="M54.0357 40.8471C54.0357 40.1532 54.0357 39.528 54.0357 38.8798C53.5807 38.9561 53.1409 39.0095 52.7163 39.1162C52.3902 39.2001 52.2386 39.1086 52.2158 38.7502C52.8603 38.613 53.5049 38.4833 54.1494 38.3308C54.5665 38.2317 54.9836 38.125 55.3779 37.9572C55.7418 37.8047 55.939 37.8962 56.0907 38.3003C55.6812 38.4223 55.2869 38.552 54.8774 38.6587C54.6802 38.7121 54.5893 38.796 54.5968 39.0171C54.612 39.6119 54.6044 40.199 54.6044 40.8242C55.2186 40.8242 55.7873 40.8242 56.3788 40.8242C56.3788 40.9996 56.3788 41.1445 56.3788 41.3428C55.8025 41.3428 55.2186 41.3428 54.6347 41.3428C54.6044 41.3809 54.5817 41.419 54.5513 41.4571C55.1201 42.2196 55.6812 42.9745 56.2651 43.7599C56.1513 43.8972 56.0376 44.0344 55.9163 44.1869C55.5068 43.5617 55.1049 42.9517 54.703 42.3493C54.6727 42.3569 54.6499 42.3645 54.6196 42.3721C54.6196 44.1945 54.6196 46.0246 54.6196 47.8775C54.4148 47.8775 54.2632 47.8775 54.066 47.8775C54.066 46.1084 54.066 44.3547 54.066 42.6009C53.5049 43.676 52.9968 44.7588 52.2082 45.7119C52.1021 45.5442 52.0111 45.3993 51.9049 45.2468C52.83 44.0954 53.4821 42.8068 53.9902 41.3733C53.3457 41.3733 52.739 41.3733 52.0945 41.3733C52.0869 41.1826 52.0793 41.0378 52.0717 40.8548C52.7087 40.8471 53.3532 40.8471 54.0357 40.8471Z" fill="#0D2240"/>
<path d="M9.30389 42.9209C9.30389 43.981 9.30389 45.0181 9.30389 46.0858C7.0898 46.0858 4.89087 46.0858 2.66919 46.0858C2.66919 45.041 2.66919 43.9962 2.66919 42.9209C4.86054 42.9209 7.06705 42.9209 9.30389 42.9209ZM6.23297 45.6816C7.10496 45.6816 7.93146 45.6816 8.7807 45.6816C8.7807 45.3537 8.7807 45.041 8.7807 44.7283C7.91629 44.7283 7.08221 44.7283 6.23297 44.7283C6.23297 45.0563 6.23297 45.3613 6.23297 45.6816ZM5.67945 44.7283C4.82262 44.7283 4.01129 44.7283 3.19238 44.7283C3.19238 45.0639 3.19238 45.3689 3.19238 45.6816C4.03404 45.6816 4.85295 45.6816 5.67945 45.6816C5.67945 45.3537 5.67945 45.0563 5.67945 44.7283ZM8.7807 44.2631C8.7807 43.9352 8.7807 43.653 8.7807 43.348C7.92387 43.348 7.0898 43.348 6.24055 43.348C6.24055 43.6607 6.24055 43.9581 6.24055 44.2631C7.09738 44.2631 7.92387 44.2631 8.7807 44.2631ZM5.67945 43.3556C4.82262 43.3556 4.01129 43.3556 3.19238 43.3556C3.19238 43.6759 3.19238 43.9657 3.19238 44.2555C4.04162 44.2555 4.85295 44.2555 5.67945 44.2555C5.67945 43.9505 5.67945 43.6607 5.67945 43.3556Z" fill="#0D2240"/>
<path d="M28.7922 47.9083C28.5723 47.9083 28.4358 47.9083 28.2462 47.9083C28.2462 45.9563 28.2462 44.0195 28.2462 42.0751C28.2235 42.0751 28.1931 42.0675 28.1704 42.0675C27.8898 42.6927 27.6396 43.3332 27.3211 43.9356C27.0026 44.5456 26.6159 45.1251 26.2292 45.7656C26.0699 45.5445 25.9562 45.3996 25.8955 45.3158C26.3505 44.538 26.8206 43.8212 27.1998 43.0511C27.5713 42.2962 27.8443 41.4956 28.1931 40.6416C27.4955 40.6416 26.9116 40.6416 26.2974 40.6416C26.2974 40.4509 26.2974 40.3061 26.2974 40.1078C26.9268 40.1078 27.5637 40.1078 28.2386 40.1078C28.2386 39.2614 28.2386 38.4684 28.2386 37.6602C28.4282 37.6602 28.5723 37.6602 28.7618 37.6602C28.7618 38.4608 28.7618 39.2538 28.7618 40.0849C29.3078 40.0849 29.8234 40.0849 30.3694 40.0849C30.377 40.2679 30.3846 40.4204 30.3922 40.6187C29.8538 40.6187 29.3306 40.6187 28.6936 40.6187C28.8073 40.8627 28.8604 41.0381 28.9666 41.1753C29.4216 41.7548 29.8917 42.3191 30.3542 42.891C30.7031 43.3256 30.7031 43.3256 30.2708 43.7297C29.8083 43.0816 29.3381 42.4411 28.8756 41.793C28.8528 41.8006 28.8225 41.8006 28.7998 41.8082C28.7922 43.8212 28.7922 45.8495 28.7922 47.9083Z" fill="#0D2240"/>
<path d="M152.401 38.4229C152.401 38.583 152.401 38.7126 152.401 38.8346C152.401 41.45 152.401 44.0654 152.401 46.6808C152.401 46.8333 152.386 46.9858 152.378 47.1383C152.355 47.5425 152.113 47.7407 151.741 47.7636C151.188 47.7941 150.634 47.7941 150.073 47.7941C149.861 47.7941 149.861 47.7788 149.717 47.2375C150.247 47.2375 150.778 47.2451 151.301 47.2375C151.809 47.2222 151.832 47.1993 151.832 46.6961C151.832 44.2484 151.832 41.8008 151.832 39.3455C151.832 39.2311 151.832 39.1167 151.832 38.9642C149.08 38.9642 146.35 38.9642 143.59 38.9642C143.59 38.766 143.59 38.6135 143.59 38.4305C146.501 38.4229 149.428 38.4229 152.401 38.4229Z" fill="#0D2240"/>
<path d="M117.649 38.0947C118.574 38.0947 119.468 38.0871 120.363 38.1023C120.689 38.1099 120.803 38.2929 120.674 38.5979C120.363 39.3681 120.052 40.1458 119.719 40.9083C119.62 41.1295 119.62 41.2743 119.787 41.4726C120.439 42.2427 120.795 43.1272 120.674 44.1643C120.576 44.9801 119.855 45.4605 119.089 45.186C118.968 45.1403 118.907 44.9191 118.786 44.7209C119.059 44.7209 119.249 44.7209 119.431 44.7209C119.908 44.7133 120.098 44.5608 120.174 44.088C120.287 43.4017 120.075 42.7841 119.734 42.2046C119.673 42.0979 119.613 41.9682 119.522 41.892C119.059 41.4878 119.067 41.0761 119.347 40.5423C119.65 39.9552 119.848 39.3071 120.105 38.6513C119.431 38.6513 118.816 38.6513 118.157 38.6513C118.157 41.7242 118.157 44.7971 118.157 47.8929C117.967 47.8929 117.823 47.8929 117.649 47.8929C117.649 44.6523 117.649 41.3963 117.649 38.0947Z" fill="#0D2240"/>
<path d="M131.381 47.2457C131.313 47.0474 131.252 46.8872 131.207 46.75C132.875 45.0874 133.982 43.0741 135.135 41.0684C135.203 41.0989 135.279 41.1217 135.339 41.1522C135.438 41.198 135.544 41.2514 135.68 41.32C134.672 43.1275 133.595 44.8739 132.223 46.5517C134.202 46.4449 136.09 46.3381 138.077 46.2314C137.538 45.4459 137.03 44.7214 136.499 43.9511C136.651 43.8825 136.795 43.8138 137.007 43.7147C137.864 44.9654 138.713 46.2009 139.578 47.4668C139.441 47.5507 139.366 47.6041 139.282 47.6575C139.206 47.7033 139.131 47.7414 139.032 47.7871C138.986 47.7185 138.933 47.6651 138.895 47.6041C138.395 46.7423 138.395 46.7347 137.394 46.8033C135.567 46.9254 133.747 47.0474 131.92 47.177C131.753 47.177 131.578 47.2152 131.381 47.2457Z" fill="#0D2240"/>
<path d="M82.4032 48.0004C82.2516 47.7716 82.1682 47.6343 82.0544 47.4513C83.025 47.1234 83.9349 46.7192 84.7614 46.0786C83.9804 45.2854 83.4269 44.3703 83.0023 43.3712C82.9492 43.2416 82.6914 43.1958 82.4791 43.0891C82.4791 43.0204 82.4791 42.8679 82.4791 42.7077C83.2221 42.5628 87.4532 42.6467 87.7489 42.8221C87.347 44.1034 86.6191 45.171 85.6106 46.1015C86.3765 46.7573 87.2485 47.1539 88.2115 47.4361C88.0825 47.6115 87.9688 47.7564 87.8551 47.9165C86.8693 47.6267 85.9898 47.1463 85.2543 46.5209C84.2913 47.0166 83.3586 47.5047 82.4032 48.0004ZM83.5482 43.2187C83.715 43.9661 84.5794 45.2549 85.2088 45.7049C85.9291 45.1863 86.8618 43.8746 86.9831 43.2187C85.8305 43.2187 84.6932 43.2187 83.5482 43.2187Z" fill="#0D2240"/>
<path d="M1.57724 39.155C1.50141 42.106 1.81231 45.0569 0.371562 47.7866C0.272984 47.7256 0.204738 47.6799 0.128909 47.6341C0.068246 47.596 0 47.5503 0 47.5426C0.257818 46.7191 0.591465 45.9337 0.73554 45.1102C0.91753 44.058 0.97061 42.9752 1.02369 41.9001C1.06919 40.9774 1.03127 40.0472 1.03127 39.1245C1.03127 38.9873 1.03127 38.85 1.03127 38.6747C2.51752 38.6747 3.96585 38.6747 5.45968 38.6747C5.34594 38.3315 5.24736 38.057 5.14878 37.7749C5.64925 37.5309 5.64925 37.5309 5.83882 38.0418C6.08148 38.6747 6.08148 38.6747 6.74877 38.6747C7.71938 38.6747 8.68999 38.6747 9.6606 38.6747C9.79709 38.6747 9.93359 38.6747 10.0928 38.6747C10.0928 38.85 10.0928 38.9797 10.0928 39.1474C7.27199 39.155 4.45116 39.155 1.57724 39.155Z" fill="#0D2240"/>
<path d="M67.1768 37.6531C67.1768 38.4385 67.1768 39.1934 67.1768 39.994C67.6394 39.994 68.064 39.994 68.4963 39.994C68.4963 40.1847 68.4963 40.3372 68.4963 40.5202C68.064 40.5202 67.6394 40.5202 67.192 40.5202C67.192 41.3894 67.192 42.2206 67.192 43.0975C67.647 42.9678 68.0868 42.8382 68.5569 42.7086C68.5797 42.8916 68.5948 43.0365 68.61 43.2042C68.2233 43.3262 67.8745 43.4635 67.5105 43.555C67.2451 43.6236 67.1541 43.7456 67.1541 44.0277C67.1693 45.0647 67.1617 46.1094 67.1617 47.1464C67.1617 47.6649 67.0555 47.7945 66.5399 47.8708C66.3048 47.9089 66.0622 47.886 65.8271 47.9165C65.4404 47.9775 65.266 47.8098 65.2432 47.398C65.6072 47.398 65.9636 47.4133 66.32 47.3904C66.4261 47.3828 66.6081 47.2684 66.6081 47.1921C66.6233 46.0941 66.6233 44.9885 66.6233 43.8447C66.1076 43.9972 65.6451 44.1421 65.137 44.2946C65.0764 44.1192 65.0309 43.9667 64.9702 43.7685C65.4555 43.6236 65.9257 43.494 66.3806 43.3415C66.4792 43.3033 66.6157 43.1737 66.6157 43.0746C66.6309 42.2434 66.6233 41.4047 66.6233 40.5278C66.1076 40.5278 65.6223 40.5278 65.1143 40.5278C65.1143 40.3448 65.1143 40.1923 65.1143 40.0017C65.5844 40.0017 66.0697 40.0017 66.6081 40.0017C66.6081 39.1934 66.6081 38.4309 66.6081 37.6455C66.8204 37.6531 66.9645 37.6531 67.1768 37.6531Z" fill="#0D2240"/>
<path d="M3.7155 28.4655C3.76099 28.496 3.79891 28.5265 3.8444 28.5418C4.70881 28.9536 4.96661 29.4265 4.84529 30.3569C4.7543 31.0737 4.17803 31.6838 3.35912 31.7601C2.56296 31.8287 1.75163 31.7754 0.909969 31.7754C0.902386 31.6915 0.887221 31.5694 0.887221 31.4474C0.887221 29.6171 0.894804 27.7944 0.879639 25.9641C0.879639 25.6133 0.993376 25.5294 1.31184 25.5447C1.95636 25.5752 2.60087 25.5447 3.2378 25.598C4.0188 25.6743 4.41309 26.0404 4.54199 26.6962C4.70123 27.5351 4.51925 27.9393 3.79132 28.374C3.76099 28.3893 3.74583 28.4274 3.7155 28.4655ZM1.34975 31.3788C1.9791 31.3788 2.57054 31.4245 3.15439 31.3635C3.88231 31.2949 4.38276 30.7534 4.41309 30.1128C4.451 29.4798 4.07188 28.8697 3.42736 28.763C2.75252 28.6486 2.05493 28.6714 1.34975 28.6257C1.34975 29.5942 1.34975 30.4636 1.34975 31.3788ZM1.34975 28.2062C1.9791 28.2062 2.55537 28.2367 3.13165 28.1986C3.74583 28.1529 4.10221 27.741 4.14012 27.1614C4.17045 26.6428 3.8899 26.1776 3.35912 26.1014C2.70702 26.0022 2.03976 26.0175 1.34975 25.9794C1.34975 26.7649 1.34975 27.4665 1.34975 28.2062Z" fill="#D70036"/>
<path d="M99.3735 42.8303C98.5698 42.8303 97.8418 42.8303 97.0836 42.8303C96.8334 44.8665 96.2798 46.735 94.3615 47.8865C94.2326 47.7493 94.1112 47.6272 93.9672 47.4747C95.7718 46.4528 96.3102 44.7674 96.5073 42.8303C96.022 42.8303 95.5595 42.8303 95.0818 42.8303C95.0818 42.6396 95.0818 42.4947 95.0818 42.3193C96.6969 42.3193 98.3044 42.3193 100.003 42.3193C99.836 43.8522 99.6995 45.3775 99.5024 46.8875C99.4038 47.6044 99.1233 47.7874 98.3878 47.795C98.0466 47.795 97.7054 47.795 97.349 47.795C97.2959 47.612 97.2504 47.4595 97.2125 47.3146C97.5689 47.3146 97.9025 47.3146 98.2437 47.3146C98.7138 47.3222 98.8806 47.2383 98.964 46.7731C99.1005 46.0181 99.1915 45.2478 99.2749 44.4776C99.328 43.9437 99.3432 43.4023 99.3735 42.8303Z" fill="#0D2240"/>
<path d="M17.0766 44.0897C17.0311 43.9677 16.9856 43.8533 16.9173 43.6856C17.2206 43.6856 17.486 43.6856 17.7817 43.6856C17.7817 42.8772 17.7817 42.1222 17.7817 41.2833C17.2358 42.1679 16.705 42.9839 15.8861 43.6093C15.78 43.4949 15.6814 43.3881 15.5525 43.2585C16.4396 42.5797 17.069 41.7256 17.5846 40.696C17.0538 40.696 16.5685 40.696 16.0757 40.696C16.0757 40.5283 16.0757 40.4062 16.0757 40.2461C16.7126 40.2461 17.3344 40.2461 17.9637 40.2461C17.9789 40.2156 17.9865 40.1775 18.0016 40.147C17.5694 39.88 17.1448 39.6131 16.6974 39.3386C16.796 39.1708 16.9249 38.9267 17.1524 39.125C17.6908 39.575 18.032 39.2394 18.3959 38.8886C18.4869 38.8047 18.5855 38.7285 18.6841 38.6446C18.6765 38.6141 18.6613 38.5836 18.6537 38.553C17.8727 38.553 17.0917 38.553 16.288 38.553C16.288 38.3776 16.288 38.2556 16.288 38.0878C17.2661 38.0878 18.2367 38.0802 19.2073 38.0955C19.321 38.0955 19.4423 38.2022 19.6319 38.3014C19.1163 38.7895 18.6537 39.2318 18.1912 39.6741C18.3429 39.8343 18.5021 40.0097 18.6689 40.1851C18.6537 40.2232 18.6386 40.2537 18.631 40.2918C19.0329 40.2918 19.4347 40.2918 19.8973 40.2918C19.7077 40.7647 19.5409 41.1612 19.3968 41.5654C19.2907 41.8705 19.1239 41.8934 18.8812 41.7027C19.0025 41.3977 19.1239 41.0774 19.2528 40.7265C18.9343 40.7265 18.6537 40.7265 18.3049 40.7265C18.3049 40.9248 18.3049 41.1384 18.3049 41.3443C18.3049 42.0306 18.3049 42.717 18.3049 43.3958C18.3049 43.9372 18.214 44.044 17.6832 44.0897C17.4936 44.105 17.2889 44.0897 17.0766 44.0897Z" fill="#0D2240"/>
<path d="M149.527 45.7889C148.003 45.7889 146.501 45.7889 144.962 45.7889C144.947 46.0711 144.932 46.3304 144.917 46.6049C144.75 46.6049 144.606 46.6049 144.431 46.6049C144.431 45.1788 144.431 43.7527 144.431 42.3037C146.122 42.3037 147.813 42.3037 149.527 42.3037C149.527 43.4553 149.527 44.5992 149.527 45.7889ZM144.962 45.2475C146.327 45.2475 147.654 45.2475 148.988 45.2475C148.988 44.4162 148.988 43.6154 148.988 42.8147C147.631 42.8147 146.304 42.8147 144.962 42.8147C144.962 43.6231 144.962 44.4162 144.962 45.2475Z" fill="#0D2240"/>
<path d="M60.2385 37.6523C60.4433 37.6523 60.5949 37.6523 60.7769 37.6523C60.7769 39.8865 60.7769 42.0978 60.7769 44.3396C61.2622 44.2633 61.7096 44.1947 62.1949 44.126C62.2252 44.2786 62.2632 44.4311 62.3011 44.6141C61.7854 44.7056 61.2925 44.7894 60.7845 44.8809C60.7845 45.8874 60.7845 46.8711 60.7845 47.8852C60.6025 47.8852 60.4508 47.8852 60.2461 47.8852C60.2461 46.9168 60.2461 45.9485 60.2461 44.9496C58.9267 45.1554 57.6603 45.3461 56.3637 45.5519C56.3409 45.3842 56.3182 45.2317 56.2878 45.0411C57.6073 44.8352 58.9039 44.6293 60.2385 44.4158C60.2385 42.1664 60.2385 39.9246 60.2385 37.6523Z" fill="#0D2240"/>
<path d="M140.351 28.9001C140.351 30.6084 139.002 31.9887 137.318 31.9964C135.628 32.004 134.225 30.6007 134.232 28.9001C134.24 27.2299 135.62 25.8495 137.281 25.8419C138.964 25.8267 140.351 27.207 140.351 28.9001ZM134.702 28.8696C134.672 30.3414 135.84 31.5769 137.281 31.6074C138.661 31.6379 139.889 30.4025 139.912 28.9535C139.942 27.5197 138.767 26.2766 137.341 26.2309C135.954 26.1851 134.733 27.4129 134.702 28.8696Z" fill="#D70036"/>
<path d="M77.9897 28.9145C77.9973 30.6076 76.6248 31.9956 74.9415 31.9956C73.2582 31.9956 71.8782 30.6152 71.8782 28.9298C71.8782 27.2291 73.243 25.8488 74.9263 25.8488C76.6097 25.8335 77.9821 27.2139 77.9897 28.9145ZM72.3483 28.8993C72.3407 30.394 73.5084 31.6142 74.9415 31.6066C76.3519 31.6066 77.5271 30.3864 77.5271 28.9222C77.5271 27.4579 76.3594 26.2453 74.9491 26.2301C73.5387 26.2148 72.3559 27.4274 72.3483 28.8993Z" fill="#D70036"/>
<path d="M127.862 28.945C127.855 30.6381 126.475 32.0032 124.784 31.9956C123.123 31.9879 121.751 30.6076 121.751 28.9374C121.751 27.2215 123.131 25.8335 124.837 25.8488C126.513 25.8488 127.87 27.2367 127.862 28.945ZM122.221 28.9145C122.213 30.394 123.358 31.5837 124.791 31.6066C126.194 31.6295 127.392 30.4017 127.4 28.945C127.407 27.4655 126.225 26.2224 124.799 26.2301C123.381 26.2377 122.229 27.435 122.221 28.9145Z" fill="#D70036"/>
<path d="M20.2463 31.8361C20.2463 29.8838 20.2463 27.962 20.2463 25.9868C20.9363 25.9868 21.6188 25.9639 22.3088 25.9944C23.5296 26.0478 24.4925 26.7494 24.7883 27.8247C25.1446 29.1212 24.9323 30.5549 23.8708 31.2642C23.4386 31.554 22.8926 31.7522 22.377 31.8285C21.687 31.9048 20.9743 31.8361 20.2463 31.8361ZM20.6937 31.4624C21.2548 31.4624 21.7704 31.4929 22.2785 31.4548C23.2869 31.3786 24.1817 30.6159 24.394 29.6169C24.6518 28.4348 24.3788 27.3747 23.4386 26.7494C22.5818 26.185 21.6339 26.3757 20.6937 26.3604C20.6937 28.084 20.6937 29.7541 20.6937 31.4624Z" fill="#D70036"/>
<path d="M92.9738 47.9086C92.7615 47.9086 92.6098 47.9086 92.4127 47.9086C92.4127 45.7125 92.4127 43.5318 92.4127 41.2442C91.9349 41.8237 91.5179 42.3194 91.0781 42.8531C90.9416 42.6625 90.8354 42.51 90.7141 42.3422C91.7833 41.2519 92.5947 39.9937 93.2392 38.6212C93.3226 38.4382 93.4288 38.2628 93.4819 38.0646C93.588 37.6681 93.8003 37.6376 94.1719 37.8739C93.8231 38.5754 93.4667 39.2846 93.133 40.0013C93.0421 40.1996 92.9662 40.4283 92.9662 40.6418C92.9511 42.8989 92.9586 45.1559 92.9586 47.4206C92.9738 47.5731 92.9738 47.7256 92.9738 47.9086Z" fill="#0D2240"/>
<path d="M40.9249 37.6455C41.1372 37.6455 41.2737 37.6455 41.4708 37.6455C41.4708 38.896 41.4708 40.1465 41.4708 41.4352C42.1457 41.4352 42.7675 41.4352 43.4121 41.4352C43.4121 41.6258 43.4121 41.7707 43.4121 41.9613C42.7903 41.9613 42.1609 41.9613 41.4936 41.9613C41.4936 43.9591 41.4936 45.9111 41.4936 47.8936C41.2964 47.8936 41.1524 47.8936 40.9628 47.8936C40.9628 45.9416 40.9628 43.982 40.9628 41.9766C40.3182 41.9766 39.7192 41.9766 39.105 41.9766C39.105 41.7859 39.105 41.6334 39.105 41.4504C39.704 41.4504 40.2879 41.4504 40.9325 41.4504C40.9249 40.177 40.9249 38.9265 40.9249 37.6455Z" fill="#0D2240"/>
<path d="M21.0955 37.6455C21.3003 37.6455 21.4216 37.6455 21.5808 37.6455C21.5808 38.2327 21.5808 38.8123 21.5808 39.4377C22.0964 39.4377 22.5817 39.4377 23.0973 39.4377C23.0973 39.6131 23.0973 39.7427 23.0973 39.9181C22.6045 39.9181 22.1192 39.9181 21.6263 39.9181C21.596 39.9487 21.5657 39.9792 21.5353 40.0097C22.1571 41.0163 22.7789 42.0306 23.4234 43.0678C23.3021 43.1822 23.1883 43.289 23.0746 43.3957C22.6045 42.5797 22.1419 41.779 21.687 40.9858C21.6642 40.9935 21.6339 41.0011 21.6112 41.0087C21.6112 42.1222 21.6112 43.2432 21.6112 44.3948C21.4368 44.4024 21.3079 44.41 21.1335 44.4177C21.1335 43.2737 21.1335 42.1527 21.1335 41.024C21.1031 41.0163 21.0728 41.0011 21.0425 40.9935C20.6178 41.8934 20.216 42.8161 19.4577 43.5635C19.3591 43.4415 19.2682 43.3195 19.1544 43.1822C19.9961 42.2747 20.5496 41.1841 20.9439 39.9334C20.542 39.9334 20.1856 39.9334 19.8141 39.9334C19.8141 39.7656 19.8141 39.6436 19.8141 39.4758C20.2236 39.4758 20.633 39.4758 21.1031 39.4758C21.0955 38.8581 21.0955 38.2709 21.0955 37.6455Z" fill="#0D2240"/>
<path d="M119.673 30.6005C119.673 29.1287 119.673 27.6644 119.673 26.1544C119.825 26.1544 119.946 26.1544 120.098 26.1544C120.098 28 120.098 29.8379 120.098 31.7674C118.611 30.2192 117.178 28.7168 115.654 27.1382C115.654 28.7778 115.654 30.2878 115.654 31.8207C115.487 31.8207 115.374 31.8207 115.23 31.8207C115.23 29.9294 115.23 28.0381 115.23 26.0781C116.708 27.6339 118.141 29.1439 119.582 30.6539C119.62 30.6387 119.643 30.6234 119.673 30.6005Z" fill="#D70036"/>
<path d="M47.2642 37.6455C47.4538 37.6455 47.5751 37.6455 47.7495 37.6455C47.7495 39.7805 47.7495 41.9232 47.7495 44.1116C48.2576 44.0277 48.705 43.9591 49.1523 43.8828C49.3419 44.3327 49.3419 44.348 48.8945 44.4318C48.8414 44.4395 48.796 44.4547 48.7505 44.47C48.432 44.5462 47.9922 44.5157 47.8405 44.714C47.6813 44.9199 47.7798 45.3469 47.7798 45.6747C47.7798 46.4067 47.7798 47.1388 47.7798 47.8936C47.613 47.8936 47.4765 47.8936 47.287 47.8936C47.287 46.8566 47.287 45.812 47.287 44.7292C46.0054 44.9656 44.7846 45.1867 43.541 45.4155C43.5031 45.2477 43.4652 45.1105 43.4197 44.9199C44.2007 44.775 44.9514 44.6377 45.7021 44.5005C46.1116 44.4242 46.5211 44.3251 46.9306 44.287C47.2415 44.2641 47.287 44.1116 47.287 43.8447C47.2794 41.9384 47.2794 40.0398 47.2794 38.1335C47.2642 37.9886 47.2642 37.8361 47.2642 37.6455Z" fill="#0D2240"/>
<path d="M49.668 26.0938C51.1617 27.6648 52.5872 29.1595 54.0886 30.7458C54.0886 29.1443 54.0886 27.6571 54.0886 26.1548C54.2554 26.1548 54.3767 26.1548 54.5132 26.1548C54.5132 28.008 54.5132 29.8383 54.5132 31.7754C53.027 30.2272 51.5939 28.7325 50.0926 27.1691C50.0926 28.7782 50.0926 30.2882 50.0926 31.8287C49.9334 31.8364 49.8121 31.844 49.6604 31.8516C49.668 29.9527 49.668 28.069 49.668 26.0938Z" fill="#D70036"/>
<path d="M33.7816 31.7442C32.303 30.2037 30.885 28.7166 29.3837 27.1532C29.3837 28.7852 29.3837 30.2952 29.3837 31.8281C29.2245 31.8358 29.1183 31.8434 28.9742 31.851C28.9742 29.9521 28.9742 28.076 28.9742 26.1084C30.4377 27.6489 31.8632 29.1437 33.3645 30.7223C33.3645 29.136 33.3645 27.6565 33.3645 26.1542C33.5313 26.1542 33.6451 26.1542 33.7891 26.1542C33.7816 27.9768 33.7816 29.8072 33.7816 31.7442Z" fill="#D70036"/>
<path d="M108.64 26.1473C108.784 26.1473 108.898 26.1473 109.065 26.1473C109.065 27.0167 109.065 27.8556 109.065 28.725C110.339 28.725 111.567 28.725 112.848 28.725C112.848 27.8708 112.848 27.0167 112.848 26.1396C113.015 26.1396 113.136 26.1396 113.281 26.1396C113.281 28.0386 113.281 29.9223 113.281 31.8212C113.144 31.8212 113.023 31.8212 112.856 31.8212C112.856 30.9366 112.856 30.0519 112.856 29.1139C112.515 29.1139 112.219 29.1139 111.916 29.1139C111.082 29.1139 110.248 29.1215 109.421 29.1063C109.14 29.0987 109.049 29.1825 109.049 29.4723C109.065 30.2426 109.057 31.0129 109.057 31.8136C108.905 31.8212 108.792 31.8289 108.632 31.8441C108.64 29.9528 108.64 28.0691 108.64 26.1473Z" fill="#D70036"/>
<path d="M3.76101 40.5891C3.22265 40.5891 2.76012 40.5891 2.26725 40.5891C2.25967 40.4366 2.25209 40.3222 2.24451 40.1697C2.74495 40.1697 3.22265 40.1697 3.73826 40.1697C3.75343 39.9028 3.76101 39.674 3.77617 39.407C3.94299 39.407 4.09464 39.407 4.27662 39.407C4.29179 39.6511 4.29937 39.8875 4.31453 40.1392C5.42158 40.1392 6.51346 40.1392 7.62809 40.1392C7.64326 39.8875 7.65084 39.6511 7.65842 39.3994C7.82524 39.3994 7.96931 39.3994 8.15129 39.3994C8.15129 39.6358 8.15129 39.8646 8.15129 40.1544C8.6669 40.1544 9.15218 40.1544 9.64504 40.1544C9.64504 40.3222 9.64504 40.4442 9.64504 40.5891C9.15976 40.5891 8.69723 40.5891 8.18162 40.5891C8.18162 40.9247 8.18162 41.2374 8.18162 41.5653C6.68786 41.5653 5.24718 41.5653 3.76101 41.5653C3.76101 41.2374 3.76101 40.9399 3.76101 40.5891ZM4.31453 41.1916C5.44433 41.1916 6.52105 41.1916 7.62051 41.1916C7.62051 40.9857 7.62051 40.8027 7.62051 40.6196C6.50588 40.6196 5.414 40.6196 4.31453 40.6196C4.31453 40.8179 4.31453 40.9933 4.31453 41.1916Z" fill="#0D2240"/>
<path d="M14.9686 44.394C14.7638 44.394 14.6349 44.394 14.4681 44.394C14.4681 43.4102 14.4681 42.4417 14.4681 41.3892C14.1042 42.1442 13.7781 42.823 13.4293 43.5322C13.2625 43.3644 13.1564 43.2501 13.035 43.128C13.7326 42.19 14.089 41.1071 14.3923 39.9326C13.9601 39.9326 13.5658 39.9326 13.1488 39.9326C13.1412 39.7648 13.1336 39.6428 13.126 39.475C13.5658 39.475 13.9904 39.475 14.4605 39.475C14.4605 38.842 14.4605 38.2548 14.4605 37.6523C14.6425 37.6523 14.779 37.6523 14.9534 37.6523C14.9534 38.2472 14.9534 38.8268 14.9534 39.4445C15.3553 39.4445 15.7117 39.4445 16.0984 39.4445C16.0984 39.6199 16.0984 39.7496 16.0984 39.9174C15.742 39.9174 15.378 39.9174 14.8852 39.9174C14.9989 40.169 15.0292 40.3826 15.1581 40.5046C15.4994 40.8401 15.8785 41.1376 16.2576 41.4655C16.0529 41.6867 15.9619 41.8011 15.8406 41.9231C15.56 41.5875 15.3022 41.2825 14.9837 40.9088C14.9686 42.1214 14.9686 43.2348 14.9686 44.394Z" fill="#0D2240"/>
<path d="M146.569 26.8023C146.107 26.6269 145.667 26.3905 145.197 26.2914C144.052 26.0626 142.953 26.6956 142.46 27.7861C141.952 28.9072 142.247 30.2037 143.188 30.9892C144.082 31.7442 145.311 31.7899 146.281 31.1265C146.494 30.9816 146.585 30.8214 146.577 30.5621C146.562 30.1427 146.569 29.7308 146.569 29.2733C146.713 29.2656 146.835 29.258 147.002 29.2504C147.002 29.8529 147.009 30.4172 146.994 30.9816C146.994 31.0731 146.88 31.1722 146.797 31.2485C145.857 32.0797 144.446 32.2246 143.332 31.6069C142.187 30.9663 141.58 29.6775 141.808 28.3505C142.02 27.115 143.021 26.1312 144.249 25.9024C144.947 25.7728 145.606 25.8796 146.228 26.1999C146.615 26.3905 146.607 26.3981 146.569 26.8023Z" fill="#D70036"/>
<path d="M40.2952 26.8413C39.8554 26.6583 39.4384 26.4066 38.9834 26.3075C37.9143 26.0787 37.0347 26.4752 36.4129 27.3599C35.776 28.2674 35.7229 29.2512 36.2537 30.235C36.9892 31.6077 38.6877 32.0119 39.9615 31.1502C40.1587 31.0205 40.2573 30.8756 40.2421 30.6239C40.2194 30.1816 40.2345 29.7393 40.2345 29.2817C40.4013 29.2817 40.5227 29.2817 40.6895 29.2817C40.6895 29.8537 40.6971 30.4257 40.6819 30.99C40.6819 31.0891 40.5606 31.2035 40.4696 31.2798C39.5293 32.1035 38.1114 32.2331 37.0044 31.6077C35.8897 30.9824 35.2756 29.6707 35.4954 28.4123C35.7305 27.1006 36.7086 26.132 37.9673 25.9109C38.6725 25.7889 39.317 25.9109 39.9464 26.2236C40.2724 26.3608 40.3862 26.5591 40.2952 26.8413Z" fill="#D70036"/>
<path d="M6.54407 26.1469C6.67297 26.1469 6.79429 26.1469 6.96111 26.1469C6.96111 26.4977 6.95353 26.8409 6.96111 27.1765C6.98386 28.1755 6.93078 29.1822 7.04452 30.1736C7.19617 31.4548 8.58377 32.0802 9.6984 31.4396C10.3202 31.0888 10.4946 30.4786 10.5097 29.8228C10.5325 28.7551 10.5173 27.695 10.5249 26.6274C10.5249 26.4748 10.5249 26.3299 10.5249 26.1469C10.6765 26.1393 10.7903 26.1316 10.8964 26.124C10.9268 26.1698 10.9495 26.1927 10.9495 26.2155C10.9343 27.5959 10.9647 28.9839 10.8737 30.3566C10.8054 31.3786 10.1382 31.9353 9.12213 32.0039C9.02355 32.0115 8.9174 32.0192 8.81883 32.0192C7.37815 32.0344 6.65023 31.4396 6.55165 30.0058C6.47583 28.7322 6.54407 27.4434 6.54407 26.1469Z" fill="#D70036"/>
<path d="M45.0196 25.9414C45.0196 26.8185 45.0196 27.6421 45.0196 28.5268C45.4139 28.5268 45.793 28.5268 46.1797 28.5268C46.5361 28.5268 46.8849 28.5344 47.2413 28.5268C47.4763 28.5191 47.5749 28.603 47.4763 28.8852C46.6726 28.8852 45.8613 28.8852 45.0272 28.8852C45.0272 29.7622 45.0272 30.5935 45.0272 31.4553C46.0281 31.4553 47.0062 31.4553 48.0147 31.4553C48.0223 31.5925 48.0299 31.6993 48.0374 31.8213C46.8773 31.8213 45.7475 31.8213 44.595 31.8213C44.595 29.7393 44.595 27.6802 44.595 25.583C45.7248 25.583 46.847 25.583 47.9768 25.583C48.0526 25.9033 48.0526 25.9109 47.772 25.9186C46.991 25.9262 46.2025 25.9186 45.4215 25.9262C45.3001 25.9262 45.1712 25.9338 45.0196 25.9414Z" fill="#D70036"/>
<path d="M83.6619 38.0947C84.7007 38.0947 85.7547 38.0947 86.8466 38.0947C86.8466 38.8955 86.8466 39.6734 86.8466 40.4589C86.8466 41.2139 86.8466 41.2139 87.6124 41.2063C87.802 41.2063 87.9839 41.191 88.1963 41.1758C88.2038 41.3283 88.219 41.4808 88.2266 41.6638C87.7186 41.6638 87.2333 41.6943 86.7632 41.6562C86.3689 41.6257 86.3234 41.2825 86.3234 40.9698C86.3158 40.3064 86.3234 39.6505 86.3234 38.987C86.3234 38.865 86.3234 38.7353 86.3234 38.5904C85.5879 38.5904 84.8827 38.5904 84.1169 38.5904C84.2458 40.1004 83.9576 41.435 82.5397 42.2968C82.426 42.1748 82.3274 42.0528 82.1985 41.9079C82.8278 41.4884 83.3586 40.9622 83.4951 40.2225C83.624 39.5437 83.6088 38.8269 83.6619 38.0947Z" fill="#0D2240"/>
<path d="M80.1133 31.835C79.9313 31.835 79.8175 31.835 79.6735 31.835C79.6735 29.8979 79.6735 27.9761 79.6735 26.0085C80.5303 26.0085 81.3947 25.8865 82.2364 26.1915C82.9567 26.4508 83.2372 26.9541 83.2221 27.8464C83.2069 28.6167 82.8733 29.1276 82.1757 29.3412C81.8421 29.4403 81.4857 29.4784 81.1369 29.5013C80.8108 29.5242 80.4848 29.509 80.1133 29.509C80.1133 30.2945 80.1133 31.0495 80.1133 31.835ZM80.1208 26.4203C80.1208 27.3355 80.1208 28.2201 80.1208 29.1353C80.5075 29.1353 80.8715 29.1353 81.2279 29.1353C81.3795 29.1353 81.5312 29.1276 81.6828 29.1048C82.388 28.9751 82.7899 28.4718 82.7899 27.7397C82.7823 26.9999 82.4259 26.5271 81.6904 26.4356C81.1824 26.3669 80.6668 26.4203 80.1208 26.4203Z" fill="#D70036"/>
<path d="M97.66 25.9873C98.7519 25.9873 99.8211 25.9873 100.921 25.9873C100.928 26.1017 100.936 26.2085 100.943 26.3534C99.9879 26.3534 99.0552 26.3534 98.0998 26.3534C98.0998 27.1541 98.0998 27.9244 98.0998 28.7251C98.8656 28.7251 99.6163 28.7251 100.39 28.7251C100.39 28.87 100.39 28.9692 100.39 29.1065C99.7301 29.1065 99.0855 29.1217 98.4486 29.0988C98.1453 29.0912 98.0543 29.1904 98.0619 29.4878C98.0846 30.1284 98.0695 30.7766 98.0695 31.463C99.0325 31.463 99.9651 31.463 100.913 31.463C100.913 31.6079 100.913 31.707 100.913 31.8291C99.8286 31.8291 98.7595 31.8291 97.66 31.8291C97.66 29.8996 97.66 27.9625 97.66 25.9873Z" fill="#D70036"/>
<path d="M62.8014 31.4697C63.772 31.4697 64.6819 31.4697 65.5842 31.4697C65.6146 31.5002 65.6373 31.5307 65.6676 31.5612C65.5918 31.6527 65.516 31.8281 65.4402 31.8357C64.4317 31.851 63.4232 31.851 62.3844 31.851C62.3844 29.891 62.3844 27.9539 62.3844 25.9711C62.8773 25.9711 63.355 25.9711 63.8251 25.9711C64.3331 25.9711 64.8336 25.9787 65.3416 25.9711C65.5994 25.9635 65.6904 26.0626 65.5918 26.3524C64.6895 26.3524 63.772 26.3524 62.8242 26.3524C62.8242 27.1532 62.8242 27.9234 62.8242 28.7242C63.5673 28.7242 64.3028 28.7242 65.0307 28.7242C65.1217 29.0979 65.1217 29.1055 64.8032 29.1055C64.2345 29.1131 63.6658 29.0979 63.0972 29.1131C62.991 29.1131 62.809 29.2275 62.809 29.2886C62.7939 29.9978 62.8014 30.707 62.8014 31.4697Z" fill="#D70036"/>
<path d="M88.0523 31.6078C87.9613 31.684 87.8703 31.8366 87.7793 31.8366C86.786 31.8518 85.7851 31.8442 84.7539 31.8442C84.7539 29.8842 84.7539 27.9548 84.7539 25.9643C85.1634 25.9643 85.5577 25.9643 85.9595 25.9643C86.5434 25.9643 87.1197 25.9719 87.7035 25.9643C87.9537 25.9567 88.0599 26.0482 87.9689 26.3456C87.059 26.3456 86.1339 26.3456 85.1861 26.3456C85.1861 27.1616 85.1861 27.9243 85.1861 28.7327C85.861 28.7327 86.5131 28.7403 87.1727 28.7327C87.4154 28.725 87.5443 28.786 87.4381 29.0987C86.7178 29.0987 85.9747 29.0987 85.2013 29.0987C85.2013 29.8995 85.2013 30.6697 85.2013 31.4705C86.1263 31.4705 87.0438 31.4705 87.9537 31.4705C87.9841 31.5163 88.0144 31.562 88.0523 31.6078Z" fill="#D70036"/>
<path d="M106.919 26.7945C105.41 25.9632 104.159 26.1005 103.271 27.1834C102.437 28.1977 102.437 29.6696 103.271 30.6458C104.204 31.7363 105.432 31.866 106.919 31.0118C107.017 31.3093 106.941 31.4999 106.653 31.6448C105.038 32.4532 103.158 31.7745 102.437 30.1272C101.732 28.5104 102.528 26.642 104.204 26.0242C105.038 25.7116 105.857 25.8107 106.661 26.1996C106.919 26.3293 107.017 26.4894 106.919 26.7945Z" fill="#D70036"/>
<path d="M58.4185 31.8132C57.5844 29.8838 56.7807 28.0382 55.9769 26.185C56.3181 26.0478 56.485 26.1393 56.6139 26.4519C57.1371 27.7408 57.6754 29.022 58.2138 30.3109C58.2668 30.4405 58.3275 30.5549 58.4261 30.7608C58.6308 30.2804 58.8052 29.8685 58.9796 29.4567C59.4042 28.45 59.8288 27.451 60.2307 26.4443C60.352 26.1469 60.5189 26.063 60.8601 26.1698C60.0639 28.023 59.2602 29.8685 58.4185 31.8132Z" fill="#D70036"/>
<path d="M140.313 42.511C140.132 42.694 139.995 42.8313 139.843 42.9838C138.956 42.3279 138.304 41.4967 137.781 40.5663C137.478 40.0324 137.197 39.4681 136.985 38.8885C136.856 38.5377 136.697 38.4614 136.363 38.469C135.772 38.4919 135.18 38.4766 134.558 38.4766C134.558 38.2936 134.558 38.1411 134.558 37.9199C135.142 37.9199 135.734 37.9199 136.317 37.9199C137.197 37.9199 137.189 37.9199 137.523 38.7283C138.107 40.1697 138.926 41.4509 140.169 42.4194C140.207 42.45 140.253 42.4728 140.313 42.511Z" fill="#0D2240"/>
<path d="M148.261 26.1082C148.64 25.9938 148.829 26.1311 149.011 26.4209C149.489 27.1912 150.005 27.9385 150.543 28.7393C151.074 27.9309 151.589 27.1759 152.075 26.398C152.241 26.1311 152.408 25.9557 152.78 26.1159C152.712 26.2226 152.643 26.3523 152.56 26.4667C152.029 27.2674 151.483 28.0606 150.968 28.869C150.839 29.0672 150.77 29.3342 150.763 29.5706C150.74 30.3027 150.755 31.0348 150.755 31.7975C150.596 31.7975 150.467 31.7975 150.293 31.7975C150.293 31.1187 150.27 30.44 150.3 29.7612C150.315 29.3494 150.217 29.0139 149.974 28.6707C149.398 27.847 148.844 26.9853 148.261 26.1082Z" fill="#D70036"/>
<path d="M91.4345 25.6133C92.9283 25.6133 94.3841 25.6133 95.8476 25.6133C95.9385 25.8573 95.8703 25.9641 95.6201 25.9565C95.1651 25.9488 94.7102 25.9717 94.2552 25.9488C93.9519 25.9336 93.8685 26.0404 93.8685 26.3378C93.8837 28.0003 93.8761 29.6629 93.8761 31.3254C93.8761 31.4855 93.8761 31.6533 93.8761 31.8287C93.7244 31.8364 93.6107 31.844 93.4591 31.844C93.4591 29.8916 93.4591 27.9546 93.4591 25.9565C92.8449 25.9565 92.2686 25.9641 91.6923 25.9565C91.4269 25.9565 91.4269 25.9412 91.4345 25.6133Z" fill="#D70036"/>
<path d="M20.4888 45.9727C20.9589 46.0032 21.0423 46.2473 20.9816 46.6362C20.8451 47.5209 20.648 47.6963 19.7457 47.6963C18.7903 47.6963 17.8273 47.7039 16.8719 47.6963C16.0302 47.6886 15.8483 47.498 15.8483 46.6667C15.8483 46.049 15.8483 45.4236 15.8483 44.7754C16.0227 44.7754 16.1743 44.7754 16.379 44.7754C16.379 45.3931 16.379 46.0109 16.379 46.6286C16.379 47.109 16.4094 47.1624 16.8871 47.1777C17.8425 47.2082 18.8054 47.2158 19.7608 47.2082C20.284 47.2006 20.4129 47.048 20.466 46.5218C20.4736 46.3388 20.4736 46.1634 20.4888 45.9727Z" fill="#0D2240"/>
<path d="M1.92603 42.4101C1.92603 42.2728 1.92603 42.1508 1.92603 42.0059C4.68606 42.0059 7.4461 42.0059 10.2137 42.0059C10.2137 42.1431 10.2137 42.2652 10.2137 42.4101C7.45368 42.4101 4.69364 42.4101 1.92603 42.4101Z" fill="#0D2240"/>
<path d="M132.799 31.8285C131.715 31.8285 130.653 31.8285 129.554 31.8285C129.554 29.9296 129.554 28.0535 129.554 26.1393C129.683 26.1317 129.804 26.1316 129.963 26.124C129.963 27.9086 129.963 29.6626 129.963 31.4777C130.448 31.4777 130.896 31.4777 131.343 31.4777C131.745 31.4777 132.147 31.4853 132.556 31.4777C132.799 31.4701 132.882 31.554 132.799 31.8285Z" fill="#D70036"/>
<path d="M67.5863 26.1465C67.5863 27.9158 67.5863 29.6698 67.5863 31.462C68.5493 31.462 69.482 31.462 70.4373 31.462C70.4449 31.5993 70.4525 31.6984 70.4677 31.8281C69.3606 31.8281 68.2839 31.8281 67.1844 31.8281C67.1844 29.9291 67.1844 28.0531 67.1844 26.1465C67.3134 26.1465 67.4347 26.1465 67.5863 26.1465Z" fill="#D70036"/>
<path d="M15.6738 26.1779C15.6738 27.9167 15.6738 29.6632 15.6738 31.4554C16.6292 31.4554 17.5618 31.4554 18.5172 31.4554C18.5324 31.6003 18.5475 31.6994 18.5627 31.829C17.4632 31.829 16.3941 31.829 15.2871 31.829C15.2795 31.7223 15.2567 31.6155 15.2567 31.5087C15.2567 29.8309 15.2567 28.1608 15.2491 26.483C15.2491 26.1779 15.3326 26.0483 15.6738 26.1779Z" fill="#D70036"/>
<path d="M143.627 40.8176C143.627 40.6574 143.627 40.5125 143.627 40.3447C145.902 40.3447 148.154 40.3447 150.429 40.3447C150.429 40.5049 150.429 40.6498 150.429 40.8176C148.169 40.8176 145.902 40.8176 143.627 40.8176Z" fill="#0D2240"/>
<path d="M99.1007 38.0713C99.4419 39.5355 99.9727 40.8854 101.125 41.9378C101.072 42.0141 101.012 42.0904 100.958 42.1666C100.898 42.2505 100.837 42.3268 100.761 42.4335C100.132 41.915 99.6997 41.2515 99.3737 40.5346C99.131 40.0007 98.9415 39.4288 98.7595 38.8644C98.6837 38.6356 98.5851 38.567 98.3576 38.5823C97.9785 38.5975 97.607 38.5899 97.2051 38.5899C97.2051 38.4068 97.2051 38.2619 97.2051 38.0865C97.8268 38.0713 98.4486 38.0713 99.1007 38.0713Z" fill="#0D2240"/>
<path d="M130.486 42.9608C130.32 42.8082 130.183 42.6862 130.084 42.6023C130.691 41.8778 131.336 41.1991 131.866 40.4365C132.39 39.6891 132.799 38.8578 133.277 38.0342C133.398 38.0723 133.565 38.1257 133.77 38.1943C132.989 40.0018 131.942 41.5957 130.486 42.9608Z" fill="#0D2240"/>
<path d="M26.616 26.1465C26.7525 26.1465 26.8662 26.1465 27.0027 26.1465C27.0027 28.0454 27.0027 29.9291 27.0027 31.8281C26.8738 31.8281 26.76 31.8281 26.616 31.8281C26.616 29.9444 26.616 28.0683 26.616 26.1465Z" fill="#D70036"/>
<path d="M13.3004 31.8353C13.1564 31.8353 13.0426 31.8353 12.9061 31.8353C12.9061 29.944 12.9061 28.0603 12.9061 26.1461C13.0274 26.1385 13.1488 26.1309 13.3004 26.1309C13.3004 28.0374 13.3004 29.9135 13.3004 31.8353Z" fill="#D70036"/>
<path d="M94.4525 42.4506C94.3084 42.2904 94.1871 42.1608 94.0582 42.0159C95.1577 40.9863 95.8022 39.6822 96.2192 38.2256C96.3936 38.2637 96.5529 38.2942 96.7424 38.34C96.3178 39.911 95.6202 41.2837 94.4525 42.4506Z" fill="#0D2240"/>
<path d="M39.3096 46.4833C38.9988 46.1859 38.9836 45.9342 39.158 45.5453C39.5523 44.6606 39.8404 43.7302 40.1816 42.7998C40.2423 42.8151 40.356 42.8456 40.5077 42.8837C40.2575 44.1497 39.9162 45.3546 39.3096 46.4833Z" fill="#0D2240"/>
<path d="M1.47107 47.581C2.50229 47.1463 3.39703 46.7497 4.31451 46.3989C4.46616 46.3379 4.70122 46.5057 4.89837 46.5667C4.89837 46.6124 4.89837 46.6582 4.89837 46.7039C3.9278 47.1005 2.96482 47.5047 1.98668 47.8708C1.88811 47.9013 1.69854 47.7106 1.47107 47.581Z" fill="#0D2240"/>
<path d="M6.94592 46.6662C7.02175 46.3306 7.19615 46.2925 7.4767 46.4069C8.34111 46.7729 9.22068 47.1161 10.1382 47.4822C10.0244 47.6652 9.94102 47.7872 9.86519 47.9169C8.87946 47.4974 7.92407 47.0856 6.94592 46.6662Z" fill="#0D2240"/>
<path d="M59.3512 42.937C59.1844 43.1277 59.0858 43.2344 58.9948 43.3336C58.282 42.7845 57.5844 42.2583 56.8793 41.7168C57.0233 41.427 57.2129 41.3965 57.4935 41.6024C58.0849 42.0447 58.6915 42.4718 59.3512 42.937Z" fill="#0D2240"/>
<path d="M21.3458 44.8814C21.6643 44.6298 21.8539 44.706 22.0207 45.0263C22.3316 45.6212 22.6728 46.1932 23.014 46.8033C22.8244 46.8948 22.6803 46.9634 22.5135 47.0397C22.1117 46.3075 21.7325 45.5983 21.3458 44.8814Z" fill="#0D2240"/>
<path d="M13.763 47.3601C13.5203 47.2228 13.3763 47.1465 13.2853 47.0931C13.6341 46.3305 13.9753 45.5984 14.3241 44.8281C14.4227 44.8663 14.5591 44.9273 14.779 45.0188C14.4378 45.8043 14.1118 46.5593 13.763 47.3601Z" fill="#0D2240"/>
<path d="M42.085 42.7692C42.449 43.5165 42.8281 44.2487 43.1542 45.0113C43.2072 45.1257 42.9873 45.3621 42.8509 45.6061C42.4717 44.7139 42.1305 43.9436 41.8272 43.1581C41.7893 43.0513 41.903 42.8912 41.9409 42.7539C41.994 42.7615 42.0395 42.7615 42.085 42.7692Z" fill="#0D2240"/>
<path d="M57.3115 38.7738C57.4101 38.6823 57.5087 38.5832 57.6679 38.4307C58.3048 38.9187 58.9342 39.4068 59.5939 39.9254C59.427 40.1085 59.3209 40.2228 59.2299 40.3296C58.5854 39.811 57.9636 39.3077 57.3115 38.7738Z" fill="#0D2240"/>
<path d="M42.8357 38.3623C42.9949 38.4081 43.1314 38.4538 43.3285 38.5072C43.0176 39.3385 42.7143 40.1545 42.4035 40.9858C42.2442 40.94 42.1305 40.9019 42.0016 40.8637C42.2897 40.0325 42.5551 39.2241 42.8357 38.3623Z" fill="#0D2240"/>
<path d="M44.413 38.8958C44.504 38.7814 44.5874 38.6746 44.7163 38.5068C45.3229 38.972 45.9067 39.4296 46.5209 39.9025C46.3844 40.1084 46.2934 40.238 46.2252 40.3372C45.6186 39.8491 45.0271 39.3839 44.413 38.8958Z" fill="#0D2240"/>
<path d="M39.9466 40.9171C39.7191 40.0934 39.4992 39.3079 39.2717 38.4995C39.484 38.3394 39.6736 38.3241 39.7722 38.6597C39.9845 39.3613 40.1892 40.0553 40.4091 40.7874C40.2044 40.8484 40.0679 40.8866 39.9466 40.9171Z" fill="#0D2240"/>
<path d="M45.975 42.6097C45.8537 42.8156 45.7703 42.9529 45.6945 43.0673C45.0575 42.625 44.4433 42.1979 43.7988 41.7479C43.8519 41.6564 43.9201 41.542 44.0415 41.3438C44.6936 41.7708 45.3229 42.1826 45.975 42.6097Z" fill="#0D2240"/>
<path d="M19.5562 45.5372C19.2984 45.7202 19.1847 45.7965 19.071 45.8728C18.6539 45.4228 18.2445 44.9805 17.8047 44.5153C17.9184 44.439 18.0397 44.3628 18.1307 44.3018C18.6084 44.706 19.0634 45.1025 19.5562 45.5372Z" fill="#0D2240"/>
</g>
<defs>
<clipPath id="clip0_403_3849">
<rect width="153" height="48" fill="white"/>
</clipPath>
</defs>
</svg>
